<svg width="321" height="137" viewBox="0 0 321 137" fill="none" xmlns="http://www.w3.org/2000/svg">
<path d="M44.9028 46.5869L0.109375 20.5552V62.2862L44.9028 91.8593V46.5869Z" fill="#6E9CD0"/>
<path d="M0 20.5552L44.9027 46.5868L89.6597 22.6362L43.7373 0L0 20.5552Z" fill="#C0DDEC"/>
<path d="M43.7009 0L0.036377 20.5552V20.5917L44.8662 46.5868H44.9026L89.6597 22.6728V22.6362L43.7737 0H43.7009Z" fill="#C0DDEC"/>
<path d="M44.9028 46.5868L89.6599 22.6362V64.3672L44.9028 91.8593V46.5868Z" fill="#85ABD9"/>
<path d="M45.0847 11.2086L42.499 11.5007L42.1348 11.6467H41.7342L41.3701 11.8293L39.3307 12.3039L39.0394 12.4134H38.748L38.4931 12.6325L34.7421 14.0199L34.56 14.1659C32.8484 14.8231 31.5009 15.7358 30.0442 16.5025L29.8622 16.6851C28.5511 17.4153 28.0777 17.8169 27.1673 18.7297L26.9488 18.8757L26.0383 20.117L25.8562 20.2631L25.5649 20.8838L25.3828 21.0663C24.3267 23.476 24.3631 23.8776 24.5816 26.6889L24.7637 26.9809V27.273L24.9094 27.5286L25.2736 28.4048L25.4192 28.5874L25.5649 29.0255L25.747 29.1715C26.2568 30.1208 26.9488 30.8875 27.5679 31.6177C27.932 32.0193 29.4616 33.2607 30.0807 33.5893L30.2628 33.7718C31.5009 34.356 32.4114 35.0862 33.9773 35.6338L34.1958 35.7799L37.2185 36.7291L37.5462 36.9117C38.6023 37.0212 39.6949 37.3498 40.8238 37.4958C42.0984 37.6784 42.7539 37.0577 43.81 36.5831L43.9921 36.437H44.1378L44.3199 36.291L49.127 34.0639L49.3091 33.9178H49.4547L49.6368 33.7718L52.4046 32.4574L52.1496 32.3479C50.5473 32.2749 48.6171 32.5305 46.8691 32.494C45.1211 32.4574 43.4823 32.1289 41.8799 32.0558L41.5522 31.8733C40.3868 31.7638 39.2214 31.2526 38.2018 30.924L37.9833 30.778C36.3809 30.1938 34.8878 28.916 34.1594 27.6016C33.0669 25.484 33.7224 23.9141 34.5964 22.1616L34.7785 22.0156L34.9242 21.7235L35.1063 21.5774C35.9803 20.3361 38.1289 18.6201 40.2047 17.9629L40.4232 17.8169L42.6447 17.1962L42.9724 17.0137H43.3002L43.628 16.8676L45.1211 16.7581C45.4852 16.5391 45.6673 16.5756 46.1772 16.5391H49.6368C50.1831 16.5391 50.6565 16.5391 51.0571 16.7216L53.0601 17.0137L53.315 17.1962C54.5168 17.3788 55.5365 18.036 56.5926 18.4376L56.7747 18.6201L57.3937 18.9122L57.5758 19.0948C58.6684 19.6789 60.5621 21.4314 60.9627 22.8188L61.1083 23.0378C61.5453 24.6078 61.4361 25.1554 61.1083 26.6889L60.9627 26.9809L60.38 28.1858L61.2176 27.8572L61.3997 27.7111L68.0276 24.2792L68.2097 24.1331L69.7757 23.3664L69.9578 23.2204L71.5237 22.4537L71.7058 22.2711C71.7786 21.9425 69.7028 20.2266 69.2658 19.825L69.1202 19.6059C68.5739 19.1313 67.8091 18.4741 67.19 18.0725L67.0444 17.8899C66.4253 17.5248 65.879 16.9772 65.2599 16.6851L65.0778 16.5025L63.4755 15.5898L63.2934 15.4072L61.2176 14.3119L61.0355 14.1659L58.3406 13.0706L58.1221 12.9246L56.4833 12.4864L56.2284 12.3039H55.937L55.6093 12.1578H55.318L55.0266 11.9753C53.7156 11.8658 52.2589 11.4276 50.7658 11.2816C48.9813 11.1356 47.2333 11.3181 45.6673 11.1721L45.0482 11.3546L45.0847 11.2086Z" fill="#6E9CD0"/>
<path d="M68.0642 34.2099V77.6204L69.7394 76.5981V33.2972L68.0642 34.2099Z" fill="#2D6198"/>
<path d="M76.2945 108.727V130.45H72.07V100.476H77.9697L82.7768 118.402V100.476H86.9648V130.45H82.1212L76.258 108.727H76.2945ZM59.2147 120.921H63.7304L61.4726 105.77L59.2147 120.921ZM69.9214 130.45H65.1871L64.386 125.01H58.632L57.8308 130.45H53.5336L58.3407 100.476H65.2236L69.9942 130.45H69.9214ZM40.6418 108.727V130.45H36.4174V100.476H42.317L47.1241 118.402V100.476H51.3121V130.45H46.4686L40.6054 108.727H40.6418ZM23.8534 123.55C23.8534 125.704 24.8002 126.507 26.2933 126.507C27.7864 126.507 28.7333 125.704 28.7333 123.55V107.376C28.7333 105.222 27.7864 104.419 26.2933 104.419C24.8002 104.419 23.8534 105.222 23.8534 107.376V123.55ZM19.1919 107.668C19.1919 102.885 21.7047 100.111 26.3297 100.111C30.9548 100.111 33.4676 102.849 33.4676 107.668V123.258C33.4676 128.041 30.9548 130.816 26.3297 130.816C21.7047 130.816 19.1919 128.077 19.1919 123.258V107.668ZM16.7155 119.278V123.258C16.7155 128.041 14.312 130.816 9.68697 130.816C5.06196 130.816 2.69482 128.077 2.69482 123.258V107.668C2.69482 102.885 5.09838 100.111 9.68697 100.111C14.312 100.111 16.7155 102.849 16.7155 107.668V110.589H12.2726V107.376C12.2726 105.222 11.3258 104.419 9.83264 104.419C8.33953 104.419 7.39267 105.222 7.39267 107.376V123.55C7.39267 125.704 8.33953 126.471 9.83264 126.471C11.3258 126.471 12.2726 125.704 12.2726 123.55V119.278H16.7155Z" fill="#1D1D1B"/>
<path d="M207.215 19.6424C208.053 20.5187 209.509 20.4456 210.383 19.971C211.257 19.4964 211.075 18.1455 210.238 16.9772C209.728 16.247 208.162 15.9184 207.142 16.9772C206.123 17.9995 206.632 19.0583 207.215 19.6424ZM182.561 6.93691C185.219 8.57987 186.967 11.0626 189.006 8.83544C189.662 8.10524 190.536 6.71785 189.079 4.01611C188.023 2.04456 184.491 1.24134 183.289 2.00805C182.051 2.73826 180.521 5.65906 182.597 6.9004M212.459 7.77665C213.952 8.21477 214.608 9.63866 215.846 8.03222C216.465 7.2655 216.538 6.20671 215.7 5.03839C215.191 4.30819 212.751 3.79705 211.731 4.85584C210.711 5.91463 211.622 7.52108 212.423 7.77665M308.965 23.7315C307.982 25.0459 307.946 25.9587 308.638 26.6523C309.366 27.4191 310.896 28.0762 312.025 27.2C313.117 26.3238 313.117 25.0459 312.207 23.9141C311.26 22.7823 309.985 22.7823 308.965 23.695M309.803 10.1863C310.932 11.2816 313.991 10.5514 314.683 9.74819C316.504 7.70363 316.577 6.46228 315.63 5.11141C314.683 3.76054 312.716 3.9796 310.75 5.44C308.783 6.86389 309.148 9.56564 309.803 10.1863ZM262.715 5.36698C263.079 8.03222 263.516 7.9592 264.463 8.21477C265.41 8.47034 266.612 6.97342 266.648 5.51302C266.685 4.05262 266.029 3.13987 264.609 3.21289C263.189 3.2494 262.679 3.9796 262.715 5.40349M228.847 38.153C226.298 37.0212 223.639 32.713 222.62 30.9605C225.46 28.1858 224.331 23.5125 222.693 20.9568C221.09 18.4011 219.16 19.1313 217.011 16.7581C214.863 14.4215 217.813 8.25128 220.544 12.9976C230.777 30.6685 237.514 23.3299 245.89 22.2711C253.939 21.2489 261.004 25.6666 263.189 13.2166C263.553 11.1721 265.519 10.6974 265.702 14.0564C265.92 17.4153 267.158 25.5936 271.565 26.6523C275.971 27.7111 279.467 25.6301 280.523 24.4617C281.543 23.2934 282.089 23.476 282.563 26.3603C283 29.2446 284.129 33.2242 290.32 28.8064C302.993 19.7519 299.388 16.247 304.304 13.9103C307.108 12.596 311.515 16.9042 305.142 20.1536C296.001 24.7903 295.018 30.5589 289.264 34.2099C279.54 40.3436 282.526 34.4655 266.903 32.2384C260.894 31.3622 258.964 38.1165 254.266 36.1815C243.414 31.6907 235.876 32.567 228.847 38.2626M285.95 56.262C275.68 62.9434 243.997 65.426 230.34 56.8827C219.633 50.2013 223.312 39.5769 192.721 16.174C188.715 13.1071 193.449 9.85772 196.472 11.9388C199.458 14.0199 196.727 14.5675 202.772 20.6282C214.972 32.8591 214.863 21.8695 216.793 26.0317C220.835 34.7941 229.794 43.593 229.794 43.593C238.753 49.4346 245.89 50.7125 259.11 41.7675C267.486 36.0719 264.063 50.822 284.602 40.1976C292.104 36.3275 291.776 38.8832 299.388 28.2588C302.556 23.8411 308.601 31.6542 301.755 32.7495C299.023 33.1877 294.398 36.1815 292.396 40.9278C289.591 47.9377 290.793 53.1587 285.986 56.262M308.019 56.7001C308.019 52.8301 304.705 49.2521 299.096 46.2948C300.407 47.9012 301.136 49.6172 301.136 51.3697C301.136 60.7162 281.252 68.3103 256.743 68.3103C232.234 68.3103 212.35 60.7162 212.35 51.3697C212.35 50.1648 212.678 49.033 213.297 47.9012C209.364 50.5299 207.106 53.5238 207.106 56.7001C207.106 66.8134 229.685 75.0282 257.58 75.0282C285.476 75.0282 308.055 66.8134 308.055 56.7001M320.073 62.4322C320.073 58.7447 317.815 55.3128 313.955 52.538C314.319 53.6698 314.501 54.8016 314.501 55.9699C314.501 66.5213 299.788 75.5393 278.957 79.2999C281.325 79.5554 283.765 79.7015 286.277 79.7015C304.96 79.7015 320.073 71.9613 320.073 62.4322ZM212.714 40.4897C202.554 42.9724 195.634 47.8647 195.634 53.4872C195.634 56.9557 198.293 60.1686 202.699 62.6878C201.352 60.5702 200.66 58.3066 200.66 56.0064C200.66 50.1648 205.176 44.7979 212.714 40.5262M315.084 94.269L311.697 88.829C309.803 90.618 307.509 91.6403 305.251 91.6403C304.231 91.6403 303.685 91.4942 301.427 90.9466C299.169 90.2894 297.603 90.1068 295.855 90.1068C287.916 90.1068 282.745 94.4515 282.745 101.206C282.745 106.062 284.93 109.092 289.409 110.297C287.588 110.735 285.585 111.721 284.675 112.78C284.019 113.546 283.692 114.569 283.692 115.773C283.692 116.796 283.947 117.708 284.311 118.475C284.748 119.169 285.331 119.753 286.059 120.082C287.516 120.666 289.883 121.031 293.524 121.104C295.418 121.104 296.547 121.177 296.984 121.177C299.242 121.323 300.371 121.688 301.245 122.126C302.083 122.637 302.702 123.806 302.702 125.083C302.702 126.361 301.9 127.639 300.772 128.406C299.679 129.173 297.931 129.501 295.6 129.501C291.849 129.501 289.773 128.114 289.773 125.485C289.773 124.317 289.883 124.061 290.138 123.368H282.599C282.308 123.988 281.871 124.901 281.871 126.69C281.871 128.917 282.708 130.852 284.42 132.532C287.224 135.27 291.776 136.036 296.183 136.036C301.026 136.036 305.724 134.868 308.456 131.801C310.167 129.866 310.932 127.749 310.932 125.01C310.932 122.053 310.094 119.826 308.274 118.037C306.088 115.919 303.612 115.153 298.878 115.08L294.508 115.007C293.67 115.007 293.16 114.678 293.16 114.24C293.16 113.364 294.326 112.561 296.365 111.538C296.984 111.611 297.203 111.611 297.567 111.611C304.195 111.611 309.038 107.522 309.038 101.863C309.038 99.6725 308.419 98.0295 307.217 96.4596C308.237 96.6056 308.565 96.6422 309.33 96.6422C311.588 96.6422 313.263 95.9485 315.047 94.196M300.662 101.169C300.662 104.2 298.914 105.843 295.673 105.843C292.833 105.843 290.866 104.492 290.866 101.169C290.866 98.1025 292.614 96.3136 295.709 96.3136C298.805 96.3136 300.626 98.1025 300.626 101.169M277.319 119.57C279.977 116.358 281.215 112.524 281.215 106.865C281.215 101.535 280.123 97.9565 277.646 94.8897C274.988 91.5673 271.528 89.9608 267.085 89.9608C258.709 89.9608 253.138 96.8247 253.138 107.121C253.138 117.416 258.673 124.098 267.085 124.098C271.892 124.098 274.988 122.382 277.355 119.534M272.366 106.792C272.366 114.532 270.836 117.891 267.34 117.891C265.774 117.891 263.953 117.015 263.225 115.189C262.57 113.51 262.205 110.699 262.205 106.938C262.205 103.689 262.497 101.352 263.043 99.636C263.699 97.5914 265.301 96.3136 267.231 96.3136C268.688 96.3136 269.962 96.9707 270.764 98.0295C271.856 99.4899 272.402 102.411 272.402 106.792M194.942 129.282L198.876 133.882C202.699 132.349 207.506 128.881 208.708 123.441C209.145 121.652 209.291 120.483 209.291 114.715V79.0443H200.66V115.664C200.66 120.483 200.478 122.272 199.822 123.879C199.021 125.668 197.091 127.858 194.906 129.246M214.826 78.9348H213.952V123.331H222.474V103.652H233.217V96.3501H222.474V86.1638H235.876L236.385 82.2937C228.301 81.673 220.981 80.3952 214.826 78.9348ZM243.086 89.7783L235.803 91.8228C236.458 93.6848 236.968 97.0073 236.968 101.425V123.331H245.126V100.147C246.655 98.2851 248.294 97.3724 250.115 97.3724C251.025 97.3724 251.681 97.5549 252.482 97.993L254.74 90.4354C253.465 89.8513 252.919 89.7417 251.681 89.7417C250.77 89.7417 249.678 89.9243 249.022 90.2529C247.493 91.0196 245.563 92.7356 244.397 94.415C244.288 92.553 243.851 91.0926 243.123 89.7417" fill="#40BE46"/>
<path d="M144.177 1.75249V130.779" stroke="#1D1D1B" stroke-width="0.69"/>
</svg>
