<svg width="104" height="101" viewBox="0 0 104 101" fill="none" xmlns="http://www.w3.org/2000/svg">
<g clip-path="url(#clip0_8_460)">
<path d="M76.7285 70.6618C75.0185 68.9594 72.2453 68.9594 70.5354 70.6618C68.8254 72.3643 68.8254 75.1253 70.5354 76.8277L93.532 99.7232C95.242 101.426 98.0152 101.426 99.7251 99.7232C101.435 98.0208 101.435 95.2598 99.7251 93.5574L76.7285 70.6618Z" fill="#59666E"/>
<path d="M35.1416 32.7826L35.3937 32.5207C40.4469 27.4898 40.4249 19.3051 35.3389 14.2523L25.1779 4.12505C20.0919 -0.938595 11.8819 -0.960421 6.82882 4.07048L3.7816 7.1043C-1.27152 12.1352 -1.2496 20.32 3.8364 25.3727L14.0084 35.5C19.0944 40.5636 27.3044 40.5854 32.3575 35.5545L32.5 35.4127L67.8937 70.6508L70.5464 68.0099L35.1416 32.7826ZM24.3339 34.9871C23.8406 35.4782 23.0514 35.4782 22.5691 34.9871L3.88025 16.3804C3.38699 15.8893 3.38699 15.1035 3.88025 14.6234C4.36254 14.1323 5.16271 14.1323 5.645 14.6234L24.3339 33.2301C24.8162 33.7212 24.8162 34.5069 24.3339 34.9871ZM29.6391 29.7052C29.1568 30.1962 28.3566 30.1962 27.8743 29.7052L9.18548 11.0985C8.69222 10.6074 8.70318 9.82164 9.18548 9.33056C9.67873 8.85038 10.4679 8.83947 10.9612 9.33056L29.6391 27.9373C30.1324 28.4283 30.1214 29.2141 29.6391 29.6943V29.7052ZM33.1796 24.4233L14.4907 5.81656C13.9975 5.32548 13.9975 4.53974 14.4907 4.05957C14.984 3.56848 15.7732 3.56848 16.2664 4.05957L34.9443 22.6554C35.4266 23.1355 35.4266 23.9322 34.9443 24.4123C34.462 24.9034 33.6619 24.9034 33.1796 24.4123V24.4233Z" fill="#59666E"/>
<path d="M27.2715 70.3454L4.26391 93.2409C2.55396 94.9434 2.55396 97.7044 4.26391 99.4068C5.97386 101.109 8.74704 101.109 10.457 99.4068L33.4536 76.5113C35.1636 74.8089 35.1636 72.0479 33.4536 70.3454C31.7437 68.643 28.9705 68.643 27.2605 70.3454H27.2715Z" fill="#59666E"/>
<path d="M55.124 51.4113L71.5 35.1073L71.6315 35.2491C76.6847 40.28 84.9056 40.2582 89.9916 35.1946L100.153 25.0673C105.239 20.0036 105.261 11.8298 100.207 6.79888L97.1602 3.76506C92.1071 -1.26584 83.8862 -1.24401 78.8111 3.81963L68.6391 13.9469C63.5641 19.0105 63.5312 27.1844 68.5843 32.2153L68.8364 32.4663L52.4604 48.7704L55.113 51.4113H55.124ZM98.355 14.307C98.8483 13.816 99.6375 13.816 100.12 14.307C100.613 14.7981 100.613 15.5839 100.12 16.0749L81.4309 34.6707C80.9376 35.1618 80.1484 35.1618 79.6661 34.6707C79.1729 34.1796 79.1729 33.3939 79.6661 32.9028L98.355 14.307ZM94.8145 9.02514C95.3078 9.51622 95.3078 10.302 94.8145 10.7821L76.1366 29.3779C75.6543 29.869 74.8541 29.869 74.3719 29.3779C73.8786 28.8977 73.8786 28.1011 74.3719 27.6209L93.0498 9.02514C93.543 8.53405 94.3322 8.53405 94.8255 9.02514H94.8145ZM69.0557 22.339L87.7336 3.74324C88.2268 3.25215 89.016 3.25215 89.5093 3.74324C89.9916 4.22341 89.9916 5.02006 89.5093 5.50023L70.8204 24.1069C70.3272 24.598 69.538 24.598 69.0557 24.1069C68.5624 23.6158 68.5624 22.8301 69.0557 22.339Z" fill="#59666E"/>
<path d="M48.4924 52.7485L33.4611 67.7085L36.1114 70.3481L51.1427 55.388L48.4924 52.7485Z" fill="#59666E"/>
</g>
<defs>
<clipPath id="clip0_8_460">
<rect width="104" height="101" fill="white"/>
</clipPath>
</defs>
</svg>
