<svg width="1920" height="751" viewBox="0 0 1920 751" fill="none" xmlns="http://www.w3.org/2000/svg">
<rect x="2" y="544" width="1920" height="203" fill="#8BD1FF"/>
<ellipse cx="1400.5" cy="683.5" rx="239.5" ry="36.5" fill="#2B77AA" fill-opacity="0.63"/>
<path d="M1781 0.767853H1925V645.704H1781V0.767853Z" fill="#BCE1F8"/>
<path d="M1781.06 431.393H1924.94V442.728H1781.06V431.393Z" fill="#6E9CD0"/>
<path d="M1801.82 416.676H1812.03C1813.35 416.676 1814.43 415.608 1814.43 414.273V274.521C1814.43 273.2 1813.37 272.117 1812.03 272.117H1801.82C1800.5 272.117 1799.41 273.185 1799.41 274.521V414.273C1799.41 415.593 1800.48 416.676 1801.82 416.676" fill="#6E9CD0"/>
<path d="M1167.42 428.263H1180.75V333.493C1180.75 329.813 1177.77 326.817 1174.09 326.817C1170.41 326.817 1167.43 329.799 1167.43 333.493V428.263H1167.42Z" fill="#6E9CD0"/>
<path d="M1151.77 326.817L1147.58 340.154H1174.07V326.817H1151.77Z" fill="#6E9CD0"/>
<path d="M1155.47 326.817H1150.78C1146.01 326.817 1142.15 330.689 1142.15 335.451V345.495C1142.15 346.044 1142.6 346.489 1143.14 346.489H1154.47C1155.02 346.489 1155.47 346.044 1155.47 345.495V326.817V326.817Z" fill="#6E9CD0"/>
<path d="M1167.42 409.377H1180.75V428.263H1167.42V409.377Z" fill="#9DCBEE"/>
<path d="M1142.14 345.643V342.142H1155.47V345.643C1155.47 346.118 1155.08 346.504 1154.61 346.504H1143.01C1142.54 346.504 1142.15 346.118 1142.15 345.643" fill="#9DCBEE"/>
<path d="M1141.53 347.498H1156.12C1156.7 347.498 1157.17 347.023 1157.17 346.444V344.174C1157.17 343.596 1156.7 343.121 1156.12 343.121H1141.53C1140.95 343.121 1140.48 343.596 1140.48 344.174V346.444C1140.48 347.023 1140.95 347.498 1141.53 347.498Z" fill="#6E9CD0"/>
<path d="M1077.37 431.275H1270.78V421.038C1270.78 418.902 1269.04 417.166 1266.91 417.166H1081.26C1079.12 417.166 1077.39 418.902 1077.39 421.038V431.275H1077.37Z" fill="#6E9CD0"/>
<path d="M1060.06 431.394V645.948H1781.04V448.217C1781.04 438.93 1773.51 431.394 1764.23 431.394H1060.06V431.394Z" fill="#BCE0F8"/>
<path d="M1601.56 611.544H1738.08C1740.25 611.544 1742.02 609.778 1742.02 607.597V502.19C1742.02 500.009 1740.25 498.243 1738.08 498.243H1601.56C1599.38 498.243 1597.62 500.009 1597.62 502.19V607.597C1597.62 609.778 1599.38 611.544 1601.56 611.544Z" fill="#6E9CD0"/>
<path d="M1603.74 504.237H1735.91V605.52H1603.74V504.237Z" fill="#9DCBEE"/>
<path d="M1635.31 522.218H1704.34C1705.71 522.218 1706.82 521.105 1706.82 519.74V519.087C1706.82 517.723 1705.71 516.61 1704.34 516.61H1635.31C1633.94 516.61 1632.83 517.723 1632.83 519.087V519.74C1632.83 521.105 1633.94 522.218 1635.31 522.218Z" fill="#BCE1F8"/>
<path d="M1572.1 488.971H1767.55V490.44H1572.1V488.971Z" fill="#6E9CD0"/>
<path d="M1603.74 572.986H1735.91V579.469H1603.74V572.986Z" fill="#6E9CD0"/>
<path d="M1744.12 466.806C1744.12 469.774 1746.53 472.162 1749.48 472.162C1752.43 472.162 1754.83 469.759 1754.83 466.806C1754.83 463.854 1752.43 461.451 1749.48 461.451C1746.53 461.451 1744.12 463.854 1744.12 466.806Z" fill="#6E9CD0"/>
<path d="M1607.89 459.211H1731.74V474.951H1607.89V459.211Z" fill="#6E9CD0"/>
<path d="M1721.66 480.93C1721.66 483.052 1723.38 484.787 1725.52 484.787C1727.65 484.787 1729.37 483.066 1729.37 480.93C1729.37 478.794 1727.65 477.073 1725.52 477.073C1723.38 477.073 1721.66 478.794 1721.66 480.93Z" fill="#6E9CD0"/>
<path d="M1655.9 480.93C1655.9 483.052 1657.62 484.787 1659.76 484.787C1661.89 484.787 1663.61 483.066 1663.61 480.93C1663.61 478.794 1661.89 477.073 1659.76 477.073C1657.62 477.073 1655.9 478.794 1655.9 480.93Z" fill="#6E9CD0"/>
<path d="M1625.49 480.93C1625.49 483.052 1627.21 484.787 1629.35 484.787C1631.48 484.787 1633.2 483.066 1633.2 480.93C1633.2 478.794 1631.48 477.073 1629.35 477.073C1627.21 477.073 1625.49 478.794 1625.49 480.93Z" fill="#6E9CD0"/>
<path d="M1640.71 480.93C1640.71 483.052 1642.43 484.787 1644.56 484.787C1646.7 484.787 1648.42 483.066 1648.42 480.93C1648.42 478.794 1646.7 477.073 1644.56 477.073C1642.43 477.073 1640.71 478.794 1640.71 480.93Z" fill="#6E9CD0"/>
<path d="M1610.28 480.93C1610.28 483.052 1612 484.787 1614.14 484.787C1616.27 484.787 1617.99 483.066 1617.99 480.93C1617.99 478.794 1616.27 477.073 1614.14 477.073C1612 477.073 1610.28 478.794 1610.28 480.93Z" fill="#6E9CD0"/>
<path d="M1665.82 462.934H1684.42V472.637H1665.82V462.934Z" fill="#9DCBEE"/>
<path d="M1060.12 444.805H1781.04V453.41H1060.12V444.805Z" fill="#6E9CD0"/>
<path d="M1301.33 446.941H1304.2V645.963H1301.33V446.941Z" fill="#6E9CD0"/>
<path d="M1495.55 482.132H1525.51C1525.71 482.132 1525.87 481.983 1525.87 481.79V478.438C1525.87 478.245 1525.71 478.082 1525.51 478.082H1495.55C1495.36 478.082 1495.21 478.23 1495.21 478.438V481.79C1495.21 481.983 1495.37 482.132 1495.55 482.132Z" fill="#6E9CD0"/>
<path d="M1495.55 553.684H1525.51C1525.71 553.684 1525.87 553.536 1525.87 553.343V549.99C1525.87 549.797 1525.71 549.634 1525.51 549.634H1495.55C1495.36 549.634 1495.21 549.782 1495.21 549.99V553.343C1495.21 553.536 1495.37 553.684 1495.55 553.684Z" fill="#6E9CD0"/>
<path d="M1495.55 625.237H1525.51C1525.71 625.237 1525.87 625.089 1525.87 624.896V621.543C1525.87 621.35 1525.71 621.187 1525.51 621.187H1495.55C1495.36 621.187 1495.21 621.335 1495.21 621.543V624.896C1495.21 625.089 1495.37 625.237 1495.55 625.237Z" fill="#6E9CD0"/>
<path d="M1558.15 448.262H1561.02V645.948H1558.15V448.262Z" fill="#6E9CD0"/>
<path d="M1460.99 446.941H1463.86V645.963H1460.99V446.941Z" fill="#6E9CD0"/>
<path d="M1462.42 513.806H1558.76V516.387H1462.42V513.806Z" fill="#6E9CD0"/>
<path d="M1462.42 576.769H1558.76V579.35H1462.42V576.769Z" fill="#6E9CD0"/>
<path d="M856.63 444.805H1061.73V431.067C1061.73 429.183 1060.21 427.655 1058.32 427.655H860.055C858.172 427.655 856.644 429.183 856.644 431.067V444.805H856.63Z" fill="#6E9CD0"/>
<path d="M1363.5 481.093H1393.46C1393.66 481.093 1393.82 480.945 1393.82 480.752V477.399C1393.82 477.206 1393.66 477.043 1393.46 477.043H1363.5C1363.31 477.043 1363.16 477.191 1363.16 477.399V480.752C1363.16 480.945 1363.32 481.093 1363.5 481.093Z" fill="#6E9CD0"/>
<path d="M1363.5 552.631H1393.46C1393.66 552.631 1393.82 552.483 1393.82 552.29V548.937C1393.82 548.744 1393.66 548.581 1393.46 548.581H1363.5C1363.31 548.581 1363.16 548.729 1363.16 548.937V552.29C1363.16 552.483 1363.32 552.631 1363.5 552.631Z" fill="#6E9CD0"/>
<path d="M1363.5 624.184H1393.46C1393.66 624.184 1393.82 624.035 1393.82 623.842V620.49C1393.82 620.297 1393.66 620.134 1393.46 620.134H1363.5C1363.31 620.134 1363.16 620.282 1363.16 620.49V623.842C1363.16 624.035 1363.32 624.184 1363.5 624.184Z" fill="#6E9CD0"/>
<path d="M1060.06 431.393H1781.06V448.544H1060.06V431.393Z" fill="#BCE1F8"/>
<path d="M1778.17 431.393H1781.04V645.948H1778.17V431.393Z" fill="#6E9CD0"/>
<path d="M1060.12 431.393H1063V645.948H1060.12V431.393Z" fill="#6E9CD0"/>
<path d="M916.239 431.275H1060.12V645.963H916.239V431.275Z" fill="#BCE1F8"/>
<path d="M916.031 619.08H1043.13C1046.12 619.08 1048.57 616.647 1048.57 613.635V487.413C1048.57 484.416 1046.14 481.969 1043.13 481.969H916.031V619.08Z" fill="#6E9CD0"/>
<path d="M916.031 613.443H1039.26C1041.42 613.443 1043.17 611.692 1043.17 609.526V491.552C1043.17 489.386 1041.42 487.636 1039.26 487.636H916.031V613.443V613.443Z" fill="#9DCBEE"/>
<path d="M916.224 580.166H1045.46V586.649H916.224V580.166Z" fill="#6E9CD0"/>
<path d="M942.423 512.886H1001.24C1002.61 512.886 1003.72 511.773 1003.72 510.409V509.756C1003.72 508.391 1002.61 507.278 1001.24 507.278H942.423C941.059 507.278 939.947 508.391 939.947 509.756V510.409C939.947 511.773 941.059 512.886 942.423 512.886Z" fill="#BCE1F8"/>
<path d="M916.239 444.82H1060.12V448.544H916.239V444.82Z" fill="#6E9CD0"/>
<path d="M929.339 376.271H992.052V382.465H929.339V376.271Z" fill="#679ACC"/>
<path d="M921.454 389.748H996.894C998.777 389.748 1000.3 388.195 1000.3 386.279V385.736C1000.3 383.821 998.777 382.267 996.894 382.267H921.454C919.571 382.267 918.043 383.821 918.043 385.736V386.279C918.043 388.195 919.571 389.748 921.454 389.748Z" fill="#679ACC"/>
<path d="M945.549 428.145H972.744C983.404 428.145 992.052 419.509 992.052 408.863V380.514C992.052 378.132 990.113 376.196 987.728 376.196H930.566C928.18 376.196 926.242 378.132 926.242 380.514V408.863C926.242 419.509 934.889 428.145 945.549 428.145Z" fill="#679ACC"/>
<path d="M929.866 376.196H936.904V391.026C936.904 401.478 945.39 409.95 955.859 409.95H992.052V411.915C992.052 420.879 984.774 428.145 975.797 428.145H942.497C933.519 428.145 926.242 420.879 926.242 411.915V379.829C926.242 377.819 927.867 376.196 929.881 376.196" fill="#7BA6D3"/>
<path d="M958.21 312.784C967.21 317.293 964.66 330.822 961.442 337.941C958.21 345.045 960.775 350.791 963.726 357.352C966.676 363.912 961.442 369.387 961.442 369.387C962.925 361.318 959.959 359.689 955.927 353.943C951.894 348.197 953.643 341.908 959.01 332.21C964.393 322.512 958.21 312.799 958.21 312.799" fill="#CFDAEE"/>
<path d="M976.759 333.823C976.966 333.869 977.174 333.914 977.352 333.974C977.544 334.035 977.722 334.08 977.9 334.14C978.241 334.246 978.568 334.366 978.864 334.502C979.457 334.759 979.932 335.045 980.332 335.347C981.133 335.95 981.592 336.659 981.815 337.428C982.259 338.951 981.785 340.731 981.177 342.541C980.881 343.446 980.54 344.366 980.258 345.256C979.976 346.161 979.754 347.035 979.68 347.88C979.605 348.725 979.68 349.524 979.961 350.278C980.11 350.655 980.317 351.002 980.584 351.349C980.717 351.515 980.866 351.681 981.029 351.847C981.103 351.922 981.192 352.013 981.281 352.088C981.37 352.163 981.459 352.239 981.563 352.329C981.355 352.284 981.162 352.239 980.97 352.178C980.777 352.118 980.599 352.073 980.421 352.013C980.065 351.907 979.754 351.786 979.457 351.651C978.864 351.394 978.375 351.108 977.989 350.806C977.189 350.203 976.729 349.494 976.507 348.74C976.284 347.971 976.299 347.156 976.432 346.281C976.581 345.422 976.848 344.517 977.144 343.612C977.752 341.802 978.493 339.947 978.656 338.258C978.731 337.413 978.656 336.614 978.375 335.86C978.227 335.483 978.019 335.136 977.752 334.789C977.619 334.623 977.47 334.457 977.307 334.291C977.233 334.216 977.144 334.125 977.055 334.05C976.966 333.974 976.877 333.899 976.773 333.808" fill="#CFDAEE"/>
<path d="M936.829 335.317C937.007 335.362 937.17 335.407 937.333 335.452C937.496 335.498 937.645 335.543 937.793 335.588C938.09 335.679 938.357 335.784 938.594 335.905C939.083 336.116 939.483 336.357 939.824 336.614C940.492 337.126 940.862 337.715 941.04 338.363C941.396 339.645 940.981 341.123 940.462 342.631C940.195 343.386 939.913 344.155 939.676 344.894C939.439 345.648 939.246 346.372 939.172 347.081C939.098 347.79 939.157 348.468 939.394 349.087C939.513 349.403 939.676 349.705 939.898 349.992C940.002 350.142 940.136 350.278 940.269 350.414C940.343 350.474 940.403 350.55 940.477 350.61C940.551 350.67 940.625 350.746 940.699 350.806C940.521 350.761 940.358 350.715 940.195 350.685C940.032 350.64 939.884 350.595 939.735 350.55C939.439 350.459 939.172 350.354 938.935 350.248C938.445 350.037 938.045 349.795 937.704 349.539C937.037 349.026 936.666 348.438 936.473 347.79C936.295 347.156 936.31 346.462 936.429 345.738C936.548 345.014 936.785 344.275 937.052 343.521C937.585 342.013 938.208 340.475 938.356 339.072C938.431 338.363 938.371 337.7 938.134 337.066C938.016 336.749 937.852 336.448 937.63 336.161C937.526 336.01 937.393 335.875 937.259 335.739C937.2 335.663 937.126 335.603 937.052 335.543C936.978 335.467 936.903 335.407 936.829 335.347" fill="#CFDAEE"/>
<path d="M948.973 322.301C950.604 322.301 951.938 323.658 951.938 325.317C951.938 326.976 950.604 328.334 948.973 328.334C947.92 328.334 946.941 327.76 946.408 326.825L947.683 326.071C947.95 326.539 948.439 326.825 948.958 326.825C949.773 326.825 950.441 326.147 950.441 325.317C950.441 324.488 949.773 323.809 948.958 323.809C948.439 323.809 947.935 324.095 947.683 324.563L946.408 323.809C946.941 322.874 947.92 322.301 948.973 322.301Z" fill="#CFDAEE"/>
<path d="M978.049 359.554C980.228 359.554 981.992 361.348 981.992 363.565C981.992 365.783 980.213 367.577 978.049 367.577C976.64 367.577 975.335 366.808 974.623 365.571L976.329 364.561C976.684 365.179 977.337 365.571 978.034 365.571C979.116 365.571 980.006 364.666 980.006 363.565C980.006 362.464 979.116 361.56 978.034 361.56C977.337 361.56 976.67 361.952 976.329 362.57L974.623 361.56C975.335 360.323 976.64 359.554 978.049 359.554" fill="#CFDAEE"/>
<path d="M968.782 339.555C969.953 339.555 970.902 340.52 970.902 341.711C970.902 342.903 969.953 343.868 968.782 343.868C968.025 343.868 967.329 343.461 966.943 342.797L967.862 342.254C968.055 342.586 968.396 342.797 968.782 342.797C969.36 342.797 969.834 342.315 969.834 341.727C969.834 341.138 969.36 340.656 968.782 340.656C968.411 340.656 968.055 340.867 967.862 341.199L966.943 340.656C967.329 339.992 968.025 339.585 968.782 339.585" fill="#CFDAEE"/>
<path d="M940.697 366.932H941.853V368.09H943.024V369.262H941.853V370.434H940.697V369.262H939.525V368.09H940.697V366.932Z" fill="#CFDAEE"/>
<path d="M948.822 354.841H950.497V356.533H952.172V358.209H950.497V359.9H948.822V358.209H947.131V356.533H948.822V354.841Z" fill="#CFDAEE"/>
<path d="M138.009 173.148H-5.87311V645.948H138.009V173.148Z" fill="#BCE1F8"/>
<path d="M138.009 431.394H-5.87311V442.728H138.009V431.394Z" fill="#6E9CD0"/>
<path d="M610.356 431.275H416.951V421.038C416.951 418.902 418.686 417.166 420.821 417.166H606.471C608.606 417.166 610.341 418.902 610.341 421.038V431.275H610.356Z" fill="#6E9CD0"/>
<path d="M859.006 431.394V645.948H138.024V448.217C138.024 438.93 145.556 431.394 154.838 431.394H859.006V431.394Z" fill="#BCE0F8"/>
<path d="M283.759 522.218H214.724C213.36 522.218 212.248 521.105 212.248 519.74V519.088C212.248 517.723 213.36 516.61 214.724 516.61H283.759C285.123 516.61 286.235 517.723 286.235 519.088V519.74C286.235 521.105 285.123 522.218 283.759 522.218Z" fill="#BCE1F8"/>
<path d="M174.943 466.806C174.943 469.774 172.541 472.162 169.591 472.162C166.64 472.162 164.238 469.759 164.238 466.806C164.238 463.854 166.64 461.451 169.591 461.451C172.541 461.451 174.943 463.854 174.943 466.806Z" fill="#6E9CD0"/>
<path d="M253.245 462.934H234.652V472.637H253.245V462.934Z" fill="#9DCBEE"/>
<path d="M858.947 444.805H138.024V453.41H858.947V444.805Z" fill="#6E9CD0"/>
<path d="M617.74 446.941H614.863V645.963H617.74V446.941Z" fill="#6E9CD0"/>
<path d="M423.52 482.132H393.554C393.361 482.132 393.198 481.983 393.198 481.79V478.438C393.198 478.245 393.361 478.082 393.554 478.082H423.52C423.712 478.082 423.861 478.23 423.861 478.438V481.79C423.861 481.983 423.697 482.132 423.52 482.132Z" fill="#6E9CD0"/>
<path d="M423.52 553.684H393.554C393.361 553.684 393.198 553.536 393.198 553.343V549.99C393.198 549.797 393.361 549.634 393.554 549.634H423.52C423.712 549.634 423.861 549.783 423.861 549.99V553.343C423.861 553.536 423.698 553.684 423.52 553.684Z" fill="#6E9CD0"/>
<path d="M423.52 625.237H393.554C393.361 625.237 393.198 625.089 393.198 624.896V621.543C393.198 621.35 393.361 621.187 393.554 621.187H423.52C423.712 621.187 423.861 621.335 423.861 621.543V624.896C423.861 625.089 423.698 625.237 423.52 625.237Z" fill="#6E9CD0"/>
<path d="M360.92 448.262H358.043V645.948H360.92V448.262Z" fill="#6E9CD0"/>
<path d="M458.081 446.941H455.205V645.963H458.081V446.941Z" fill="#6E9CD0"/>
<path d="M456.643 513.806H360.312V516.387H456.643V513.806Z" fill="#6E9CD0"/>
<path d="M456.643 576.769H360.312V579.35H456.643V576.769Z" fill="#6E9CD0"/>
<path d="M859.006 431.394H138.009V448.544H859.006V431.394Z" fill="#BCE1F8"/>
<path d="M140.9 431.394H138.024V645.948H140.9V431.394Z" fill="#6E9CD0"/>
<path d="M858.947 431.394H856.07V645.948H858.947V431.394Z" fill="#6E9CD0"/>
<path d="M1002.83 431.275H858.947V645.963H1002.83V431.275Z" fill="#BCE1F8"/>
<path d="M1003.04 619.08H875.939C872.944 619.08 870.497 616.647 870.497 613.635V487.413C870.497 484.416 872.929 481.969 875.939 481.969H1003.04V619.08Z" fill="#6E9CD0"/>
<path d="M1003.04 613.443H879.809C877.644 613.443 875.894 611.692 875.894 609.526V491.552C875.894 489.386 877.644 487.636 879.809 487.636H1003.04V613.443V613.443Z" fill="#9DCBEE"/>
<path d="M1002.84 580.166H873.611V586.649H1002.84V580.166Z" fill="#6E9CD0"/>
<path d="M976.644 512.886H917.825C916.461 512.886 915.349 511.774 915.349 510.409V509.756C915.349 508.391 916.461 507.278 917.825 507.278H976.644C978.009 507.278 979.121 508.391 979.121 509.756V510.409C979.121 511.774 978.009 512.886 976.644 512.886Z" fill="#BCE1F8"/>
<path d="M1002.83 444.82H858.947V448.544H1002.83V444.82Z" fill="#6E9CD0"/>
<g clip-path="url(#clip0_106_5)">
<path d="M1318.13 368.577C1322.29 364.64 1326.68 361.616 1331.27 358.279C1333.76 356.48 1335.87 354.668 1338.33 353.208C1338.37 350.549 1338.45 348.046 1337.47 345.321C1335.64 340.211 1336.89 337.121 1331.51 333.328C1326.13 329.547 1318.77 327.644 1311.2 326.367C1299.71 324.411 1272.82 318.258 1256.58 326.262C1254.38 327.344 1253.62 331.216 1253.58 334.162C1253.58 334.293 1251.93 353.39 1254.22 358.305C1258.09 366.583 1260.68 370.376 1267.31 376.073C1274.65 382.37 1286.33 386.085 1295.67 388.236C1299.03 389.005 1311.17 386.007 1314.44 385.85C1315.81 375.865 1311.16 375.174 1318.13 368.564V368.577Z" fill="#FAFAFA"/>
<g style="mix-blend-mode:multiply">
<path d="M1319.46 367.287C1323.56 362.868 1328.53 359.1 1333.96 356.323C1335.12 355.437 1336.28 354.564 1337.45 353.703C1336.73 351.396 1336 349.414 1335.38 348.098C1330.21 350.627 1316.98 355.463 1309 358.122C1292.66 363.571 1282.83 365.005 1274.79 366.413C1272.57 366.804 1271.27 366.179 1269.8 366.218C1267.91 366.27 1266.06 365.592 1264.89 365.488C1263.13 365.331 1261.2 364.406 1260.33 364.041C1257.84 362.985 1257.91 363.154 1255.81 364.067C1262.05 369.451 1261.42 370.298 1271.55 374.6C1286.94 381.144 1292.27 376.464 1302.38 380.258C1304.35 380.988 1305.61 382.148 1306.67 383.399C1310.08 377.455 1315.2 371.875 1319.46 367.3V367.287Z" fill="#EEEEEE"/>
</g>
<path d="M1271.79 369.607C1279.92 371.628 1286.79 372.045 1293.99 371.719C1304.43 371.237 1310.38 369.047 1316.81 367.013C1317.53 363.233 1319 358.683 1318.9 353.273C1318.79 347.668 1317.36 345.504 1317.71 336.313C1317.74 335.453 1318.18 334.006 1318.33 333.171C1318.64 331.372 1318.57 331.346 1318.26 329.782C1307.23 336.313 1309.47 336.131 1303.97 340.276C1301.56 342.088 1299.37 344.252 1296.49 345.425C1293.61 346.599 1291.15 348.437 1287.84 347.224C1277.43 343.392 1281.07 327.54 1278.49 306.304C1278.31 304.805 1277.19 298.913 1276.16 295.927C1273.71 288.784 1271.14 289.918 1268.71 288.38C1265.81 292.577 1262.57 295.797 1259.73 300.164C1256.89 304.531 1253.93 309.12 1251.94 314.204C1247.76 324.894 1245.93 331.386 1248.68 346.938C1249.04 348.893 1250.46 352.439 1252.44 354.772C1253.71 356.271 1255.37 359.439 1257.4 361.264C1259.12 362.802 1261.46 365.11 1263.85 366.4C1266.23 367.678 1269.02 368.955 1271.79 369.646V369.607Z" fill="#FAFAFA"/>
<path d="M1441.78 327.097C1444.67 329.795 1448.05 334.175 1454.24 340.55C1461.52 348.046 1463.26 350.405 1469.84 358.644C1473.8 357.471 1474.39 358.044 1483.4 355.176C1487.04 354.016 1494.03 351.735 1497.63 349.845C1509.4 343.639 1515.55 334.983 1518.52 323.642C1519.71 319.106 1516.02 308.39 1515.53 304.492C1502.3 303.293 1499.86 300.125 1476.5 308.429C1458.79 314.725 1452.49 319.796 1441.79 327.097H1441.78Z" fill="#FAFAFA"/>
<path d="M1474.39 342.818C1475.39 335.857 1475.26 332.598 1475.79 331.125C1479.6 320.761 1480.3 320.37 1487.39 311.388C1495.11 301.598 1489.9 309.198 1501.46 292.864C1514.84 284.769 1514.65 284.56 1516.22 284.638C1516.76 284.664 1517.27 285.903 1517.34 286.607C1517.4 287.311 1517.92 288.158 1518.24 288.901C1519.41 291.795 1519.73 292.734 1520.71 293.203C1521.14 297.114 1522.83 305.04 1521.65 312.209C1521.13 315.338 1521.3 320.813 1516.82 327.579C1513.64 332.389 1508.84 336.835 1504.51 339.298C1501.2 341.176 1494.75 343.001 1491.28 343.496C1485.73 344.291 1482.56 343.418 1474.37 342.818H1474.39Z" fill="#FAFAFA"/>
<path d="M1460.47 319.262C1461.99 320.201 1462.3 320.944 1462.96 321.7C1463.61 322.456 1464.64 323.46 1465.49 324.007C1466.13 324.411 1468.42 324.646 1469.09 324.933C1471.01 325.754 1473.37 327.423 1478.57 327.775C1482.43 328.035 1485.75 327.449 1489.33 326.301C1494.44 324.659 1499.73 321.739 1502.98 319.783C1506.86 317.45 1511.81 311.571 1513.74 307.373C1515.68 303.162 1519.12 300.438 1520.39 296.071C1521.65 291.691 1520.42 286.685 1521.13 282.67C1521.83 278.668 1519.42 273.297 1519.53 270.664C1519.71 266.062 1514.64 259.544 1513.65 258.227C1510.07 253.508 1504.25 249.441 1501.65 247.316C1497.37 243.809 1493.15 239.116 1490.01 238.086C1482.53 235.623 1491.36 242.349 1493.09 245.113C1493.69 246.065 1497.17 250.549 1497.8 253.547C1498.42 256.546 1500.61 261.369 1500.14 265.267C1498.92 275.617 1497.18 279.724 1491.15 289.279C1488.44 293.581 1484.95 297.453 1482.16 300.725C1479.68 303.645 1464.12 316.238 1460.47 319.262V319.262Z" fill="#FAFAFA"/>
<g style="mix-blend-mode:multiply">
<path d="M1461.65 317.215C1459.09 316.407 1452.22 314.36 1449.06 313.135C1442.62 310.619 1443.24 310.658 1438 307.399C1435.27 307.399 1424.17 307.881 1415.39 306.643C1404.49 305.105 1398.12 302.041 1393 300.959C1366.97 309.928 1352.17 321.243 1337.05 326.627C1330.39 329 1324.66 328.752 1317.96 330.095C1317.86 330.186 1309.18 338.242 1309.09 338.347C1306.76 340.771 1304.86 342.218 1303.45 344.917C1302.05 347.615 1302.48 350.418 1301.81 353.273C1307.83 351.292 1308.82 350.757 1313.88 347.159C1318.27 344.043 1321.88 340.133 1325.2 337.408C1359.29 333.771 1365.57 325.637 1393.09 310.984C1397.96 313.278 1402.47 316.72 1413.5 317.476C1423.56 318.167 1430.9 315.312 1434.84 314.321C1436.48 315.925 1440.15 320.409 1445.31 322.964C1451.62 326.093 1454.57 325.024 1458.13 324.633C1459.5 325.871 1461.8 328.896 1465.75 330.043C1469.72 331.19 1470.23 331.359 1475.65 331.229C1470.79 326.953 1469.24 326.849 1466.56 324.985C1461.5 321.491 1461.74 320.448 1461.66 317.228L1461.65 317.215Z" fill="#EEEEEE"/>
</g>
<path d="M1438.17 307.477C1440.56 309.172 1442.59 311.414 1445.19 312.77C1448.29 314.4 1450.52 316.12 1454.21 316.59C1462.59 317.632 1468.72 314.973 1476.03 310.384C1486.4 303.866 1499.58 293.933 1504.21 282.605C1509.38 269.973 1507.41 262.49 1502.21 251.97C1499.45 246.39 1495.17 241.645 1491.34 237.787C1486.23 232.624 1480.81 229.535 1475.23 226.106C1472.08 224.164 1469.42 224.307 1466.38 223.682C1463.33 223.056 1460.61 223.616 1457.87 223.708C1453.75 223.838 1448.05 225.363 1443.72 224.933C1450.72 229.548 1456.75 230.121 1463.43 236.535C1466.98 239.938 1471.18 245.282 1471.14 252.296C1471.12 256.637 1471.63 263.207 1469.37 268.773C1467.52 273.31 1463.91 283.322 1457.9 290.504C1448.09 302.198 1444.82 303.319 1438.16 307.477H1438.17Z" fill="#FAFAFA"/>
<g style="mix-blend-mode:multiply">
<path d="M1453.44 227.058C1456.84 227.592 1463.54 227.658 1470.91 232.351C1477.03 236.248 1479.89 240.316 1482.83 246.065C1500.78 281.223 1473.4 278.798 1459.15 309.641C1458.59 310.841 1458.64 313.578 1458.63 313.813C1458.6 314.491 1458.9 315.169 1458.86 315.807C1458.82 316.446 1460.25 316.55 1459.68 317.202C1459.11 317.854 1457.28 317.189 1456.22 316.981C1455.84 316.902 1450.9 316.668 1448.18 315.077C1444.45 312.913 1440.93 307.621 1438.82 305.704C1446.31 299.825 1453.65 295.693 1460.07 288.171C1464.9 282.513 1469.97 275.8 1472 268.043C1474.04 260.287 1474.43 252.882 1470.86 245.204C1467.29 237.526 1459.78 232.52 1453.44 227.084V227.058Z" fill="#EEEEEE"/>
</g>
<path d="M1314.46 333.184C1317.17 330.629 1316.35 331.816 1319.95 329.795C1320.62 329.43 1321.24 328.948 1322.01 328.635C1335.18 327.944 1341.36 327.396 1356.56 319.145C1366.95 313.513 1374.29 303.228 1395.77 301.624C1395.93 301.624 1409.49 307.464 1411.74 307.764C1418.85 308.716 1430.03 307.49 1432.86 306.63C1435.2 305.926 1437.27 306.474 1439.64 304.753C1447.15 299.343 1454.51 295.054 1460.61 287.193C1465.29 281.132 1472.84 272.762 1473.79 264.198C1474.78 255.151 1476.37 248.841 1469.67 240.407C1462.52 231.412 1460.21 227.879 1446.41 225.05C1446.34 225.037 1434.54 224.086 1420.72 222.6C1415.38 222.026 1388.07 220.188 1355.67 227.775C1349.08 229.326 1333.96 234.11 1320.66 239.833C1314.09 242.662 1308.49 246.117 1303.79 249.311C1297.86 253.339 1294.15 258.188 1289.99 262.399C1286.34 266.088 1283.75 269.842 1281.15 272.971C1277.81 276.973 1274.82 279.932 1272.42 283.608C1269.16 288.614 1266.58 291.756 1264.93 297.387C1263.27 303.019 1264 308.625 1264.64 314.712C1265.16 319.692 1269.14 331.907 1271.85 336.6C1276 343.77 1280.04 347.459 1288.14 348.476C1290.75 348.802 1293.27 348.033 1295.75 347.172C1303.18 344.604 1310.08 337.278 1314.44 333.158L1314.46 333.184Z" fill="#FAFAFA"/>
<path d="M1477.55 332.819C1477.55 332.819 1477.57 332.728 1477.58 332.689C1477.58 332.689 1477.66 332.389 1477.66 332.376C1477.66 332.337 1477.66 332.233 1477.7 332.246C1477.77 332.272 1477.64 332.285 1477.58 332.689C1477.58 332.728 1477.58 332.832 1477.54 332.819H1477.55Z" fill="#7A7A7A"/>
<g style="mix-blend-mode:multiply">
<path d="M1459.89 230.187C1465.33 234.163 1471.3 237.135 1475.13 243.014C1478.47 248.111 1480.05 253.769 1480.33 259.922C1480.58 265.632 1478.75 271.315 1476.43 276.412C1473.92 281.914 1469.41 286.737 1465.86 291.091C1463.95 293.425 1461.27 295.223 1459.71 296.71C1457.65 298.678 1454.81 300.699 1453.51 301.885C1444.95 309.68 1442.77 307.269 1437.66 307.764C1441.68 305.131 1449.26 301.233 1455.26 294.793C1456.94 292.981 1459.6 290.322 1461.43 287.845C1462.95 285.759 1465.06 282.865 1466.36 280.388C1468.4 276.543 1471.09 272.371 1472.41 268.356C1474.05 263.389 1475.63 259.4 1475.16 254.173C1474.67 248.946 1472.66 245.022 1469.66 240.42C1467.33 236.861 1462.94 233.407 1459.9 230.174L1459.89 230.187Z" fill="#EEEEEE"/>
</g>
<g style="mix-blend-mode:multiply">
<path d="M1335.91 283.478C1333.42 284.456 1325.14 290.087 1324.27 292.173C1323.13 294.858 1323.51 296.553 1324.85 298.991C1325.95 300.959 1327.87 301.702 1329.96 302.745C1331.59 303.567 1334.13 302.784 1335.76 304.036C1338.76 306.343 1340.03 307.777 1338.36 311.923C1337.24 314.673 1334.84 317.945 1332.24 320.24C1323.97 327.566 1321.71 326.862 1316.01 328.387C1322.99 328.7 1328.63 330.056 1335.76 328.126C1347.22 325.011 1364.86 313.278 1372.8 309.342C1379.53 306.017 1386.51 303.423 1393.44 300.594C1386.22 296.762 1364.57 283.074 1345.12 283.126C1339.04 283.139 1341.2 281.392 1335.91 283.478V283.478Z" fill="#EEEEEE"/>
</g>
<g style="mix-blend-mode:multiply">
<path d="M1393.4 300.633C1377.73 290.465 1366.5 285.877 1348.5 282.813C1345.97 282.383 1344.82 282.761 1343.01 283.204C1340.68 283.765 1336.81 281.523 1335.91 283.491C1335.14 285.147 1338.93 292.069 1343.92 293.698C1357.95 298.274 1365.07 295.054 1377.19 300.125C1378.33 300.594 1377.91 301.181 1378.42 301.833C1378.93 302.485 1378.77 303.084 1378.95 303.684C1379.36 305.014 1378.2 307.06 1377.99 307.595C1382.03 305.574 1390.14 302.276 1393.39 300.646L1393.4 300.633Z" fill="#EEEEEE"/>
</g>
<g style="mix-blend-mode:multiply">
<path d="M1288.87 303.527C1288.36 301.976 1288.43 300.633 1287.1 299.799C1285.77 298.965 1285.18 299.682 1284.44 301.011C1283.95 301.898 1283.49 303.162 1283.37 304.453C1283.26 305.744 1283.02 307.191 1283.15 308.716C1283.69 314.517 1284.53 317.906 1287.02 323.355C1288 325.493 1289.69 327.501 1290.88 329.143C1292.06 330.786 1294.26 332.155 1295.57 332.728C1297.7 333.667 1300.15 335.388 1301.36 336.248C1304.96 338.79 1304.4 339.976 1308.85 338.282C1310.01 337.838 1312.12 335.14 1313.65 333.797C1314.56 332.989 1316.81 330.968 1317.97 330.056C1314.95 328.739 1311.79 328.153 1308.74 326.745C1305.69 325.337 1302.69 324.02 1299.94 321.856C1291.5 315.169 1290.94 309.811 1288.86 303.54L1288.87 303.527Z" fill="#EEEEEE"/>
</g>
<g style="mix-blend-mode:multiply">
<path d="M1301.76 344.943C1298.67 346.181 1296.27 347.928 1292.86 348.58C1290 349.128 1287.09 349.545 1284.04 348.619C1276.35 346.299 1274.09 342.466 1271.08 335.557C1270.52 334.279 1268.84 328.322 1268.72 327.983C1266.83 322.299 1267.95 321.452 1267.94 317.997C1267.94 316.863 1268.18 315.899 1267.38 314.973C1266.57 314.048 1266.05 313.787 1264.77 314.621C1264.09 315.064 1263.16 315.677 1262.53 316.746C1262.13 317.437 1261.16 317.919 1260.85 319.184C1259.63 324.164 1258.02 328.987 1258.28 334.475C1258.51 339.012 1259.42 344.148 1260.89 348.606C1264.64 359.947 1267.98 364.745 1279.14 370.168C1280.59 370.872 1283.15 370.702 1285.21 370.82C1286.67 370.911 1289.11 370.924 1290.85 370.846C1297.12 370.546 1296.48 370.937 1303.11 368.656C1303.01 358.227 1301.89 349.349 1301.76 344.943V344.943Z" fill="#EEEEEE"/>
</g>
<g style="mix-blend-mode:multiply">
<path d="M1301.49 344.995C1298.49 346.416 1294.93 348.332 1291.69 348.619C1282.88 349.401 1276.31 345.073 1271.85 337.565C1269.15 333.041 1268.88 328.361 1267.31 323.538C1267.68 329.156 1266.97 334.749 1268.76 340.198C1272.04 350.249 1278.89 357.197 1289.43 359.491C1293.82 360.443 1298.32 358.918 1302.69 358.279C1302.72 355.541 1301.87 346.429 1301.49 344.995V344.995Z" fill="#EEEEEE"/>
</g>
<g style="mix-blend-mode:multiply">
<path d="M1375.96 252.035C1350.87 256.572 1318.06 265.671 1295.52 277.103C1284.14 282.878 1266.06 301.025 1258.9 313.852C1253.44 323.642 1253.75 339.663 1256.1 351.709C1257.4 358.396 1264.12 363.115 1266.14 365.331C1270.06 369.633 1278.89 372.423 1292.34 371.745C1296.7 371.523 1303.12 368.629 1303.12 368.629C1303.12 368.629 1303.12 362.542 1303.38 356.35C1303.5 353.39 1302.04 348.567 1301.81 345.308C1303.15 343.535 1318.1 329.952 1318.21 329.86C1335.91 328.726 1335.92 329.3 1355.78 318.467C1365.83 312.979 1376.59 304.036 1393.99 302.784C1399.61 302.38 1403.48 305.027 1408.6 305.639C1413.15 306.187 1417.51 307.178 1421.95 307.308C1437.48 307.764 1439.12 304.727 1447.55 299.538C1445.42 297.739 1441.91 296.058 1441.06 290.022C1439.37 277.794 1453.83 275.461 1452.71 255.333C1452.45 250.771 1450.99 246.43 1448.84 243.131C1445.57 238.1 1442.71 236.6 1437.35 234.593C1436.09 234.124 1434.25 236.001 1432.96 236.822C1406.69 253.443 1400.36 247.629 1375.97 252.035H1375.96Z" fill="#EEEEEE"/>
</g>
<g style="mix-blend-mode:multiply">
<path d="M1502.12 249.754C1504.41 252.113 1511.88 259.179 1515.07 265.892C1518.41 272.919 1517.85 276.973 1515.34 284.404C1513.04 291.261 1509.22 296.618 1505.39 301.768C1499.09 310.228 1495.7 311.61 1490.18 315.364C1488.27 316.655 1483.83 318.767 1485.17 323.173C1485.77 325.154 1488.42 325.428 1487.81 326.354C1486.98 327.579 1484.87 327.605 1483.26 327.657C1482.5 327.683 1480.37 328.335 1479.29 328.348C1474.02 328.4 1470.01 327.801 1465.02 323.121C1464.21 322.365 1461.97 320.931 1461.44 320.174C1460.64 319.027 1462.01 317.541 1461.17 316.564C1470.43 311.792 1478.24 310.15 1486.84 303.136C1491.54 299.304 1497.15 293.685 1500.7 287.272C1509.78 270.924 1508.53 267.17 1502.14 249.728L1502.12 249.754Z" fill="#EEEEEE"/>
</g>
<g style="mix-blend-mode:multiply">
<path d="M1508.21 261.252C1508.05 261.929 1508.27 263.741 1508.27 265.593C1508.27 270.286 1512.75 278.668 1492.39 298.3C1480.98 309.302 1470.08 313.174 1460.81 317.228C1461.22 317.372 1460.96 318.024 1461.45 319.106C1461.91 320.122 1462.44 320.018 1462.23 320.448C1466.71 319.262 1472.62 318.31 1479.72 314.256C1479.86 314.178 1489.03 309.368 1492.1 306.865C1499.84 300.542 1503.97 296.305 1508.31 286.933C1515.08 272.306 1510.54 269.282 1508.22 261.239L1508.21 261.252Z" fill="#EEEEEE"/>
</g>
<g style="mix-blend-mode:multiply">
<path d="M1507.83 316.146C1504.25 318.793 1504.64 323.042 1487.57 326.81C1480.38 328.4 1479.19 328.987 1474.78 328.856C1477.77 336.678 1476.85 341.619 1475.96 352.282C1478.07 349.727 1478.56 350.001 1481.03 345.217C1481.67 343.991 1482.15 342.557 1482.63 341.41C1483.29 339.833 1483.3 338.347 1484.17 336.965C1487.9 331.02 1501.71 334.957 1511.49 320.918C1514.24 316.981 1515.06 307.582 1515.72 305.535C1514.24 308.09 1512.48 312.705 1507.84 316.133L1507.83 316.146Z" fill="#EEEEEE"/>
</g>
<g style="mix-blend-mode:multiply">
<path d="M1505.24 330.668C1510.5 326.979 1513 324.15 1515.29 318.037C1517.25 312.796 1518.15 302.393 1518.46 300.607C1516.65 303.892 1514.2 307.816 1511.98 310.723C1509.36 314.165 1508.36 316.329 1504.79 318.662C1500.53 321.465 1493.94 325.91 1489.1 326.914C1483.21 328.126 1480.65 328.83 1474.77 328.87C1476.35 333.51 1477.23 332.976 1475.65 342.205C1475.47 343.274 1474.57 351.226 1474.84 355.802C1474.86 356.063 1475.23 356.102 1475.43 356.219C1476.17 356.675 1476.89 357.601 1477.08 357.275C1478.66 354.772 1477.59 353.612 1483.66 350.979C1488.81 348.749 1494.75 348.437 1504.79 341.084C1509.76 337.46 1510.93 335.244 1512.78 332.298C1511.31 333.732 1508.21 335.922 1506.84 336.991C1504.38 338.92 1500.65 340.537 1498.29 341.488C1492.86 340.745 1495.75 338.399 1498.42 335.753C1499.97 334.214 1503.07 332.181 1505.24 330.668Z" fill="#EEEEEE"/>
</g>
<g style="mix-blend-mode:multiply">
<path d="M1311.56 392.877C1311.56 393.163 1311.56 393.45 1311.58 393.724C1313.64 394.532 1316.08 395.301 1318.82 396.031C1316.48 394.819 1314.05 393.776 1311.56 392.877V392.877Z" fill="#EEEEEE"/>
</g>
<g style="mix-blend-mode:multiply">
<path d="M1469.06 393.724C1469.06 393.594 1469.06 393.45 1469.05 393.32C1466.64 394.141 1464.29 395.119 1462.01 396.24C1464.57 395.34 1467.07 394.428 1469.06 393.724Z" fill="#EEEEEE"/>
</g>
<g style="mix-blend-mode:multiply">
<path d="M1316.24 392.642C1319.11 393.594 1321.92 394.728 1324.64 396.044C1326.05 396.722 1327.39 397.465 1328.72 398.234C1360.32 404.179 1414.93 405.939 1450.51 399.59C1453.11 397.961 1455.82 396.514 1458.63 395.275C1461.58 393.959 1464.64 392.877 1467.76 392.016C1468.16 391.899 1468.58 391.808 1468.98 391.703C1468.41 376.347 1466.77 340.706 1466.53 324.959C1466.53 324.594 1463.31 320.852 1462.08 318.949C1460.85 317.085 1460.98 316.59 1460.8 316.498C1448.4 310.15 1437.72 302.758 1423.79 299.89C1393.63 293.685 1368.82 297.114 1341.37 307.269C1329.48 311.675 1318.83 318.988 1308.18 325.884C1308.37 341.932 1311.1 372.201 1311.53 391.26C1313.11 391.664 1314.68 392.107 1316.24 392.629V392.642Z" fill="#EEEEEE"/>
</g>
<path d="M1305.4 389.996C1305.4 389.996 1305.47 389.996 1305.49 390.009C1309.14 390.608 1312.74 391.482 1316.24 392.642C1319.11 393.594 1321.92 394.728 1324.64 396.044C1330.27 398.756 1335.23 402.289 1339.69 406.486C1354.05 408.507 1371.91 409.706 1391.26 409.706C1410.62 409.706 1427.11 408.598 1441.17 406.721C1441.6 406.33 1441.99 405.926 1442.43 405.548C1444.86 403.449 1447.44 401.546 1450.13 399.825C1452.84 398.104 1455.68 396.579 1458.63 395.288C1461.58 393.972 1464.64 392.89 1467.76 392.029C1469.52 391.547 1471.3 391.143 1473.09 390.817C1473.09 390.713 1476.02 390.321 1476.29 390.282C1476.51 390.243 1476.73 390.217 1476.95 390.191C1476.81 380.258 1476.26 354.316 1475.98 340.354C1476.3 338.647 1476.47 331.294 1475.69 331.112C1467.8 325.128 1460.61 318.245 1451.8 313.5C1432.47 303.084 1411.94 298.861 1389.39 299.017C1378.25 299.095 1367.68 300.946 1356.46 303.241C1350.16 304.518 1331.7 311.91 1324.86 315.312C1310.61 322.404 1306.42 328.478 1300.24 334.175C1300.26 334.345 1303.74 370.728 1304.71 377.52C1305 382.461 1305.25 386.919 1305.38 389.996H1305.4Z" fill="#FAFAFA"/>
<path d="M1532.41 555.175C1532.29 553.885 1531.9 552.607 1532.23 551.291C1530.03 542.009 1528.07 532.662 1524.97 523.615C1524.84 523.211 1524.84 522.768 1524.79 522.338C1524.53 521.829 1524.2 521.334 1524.01 520.799C1519.8 509.093 1514.68 497.791 1508.54 486.971C1507.81 485.68 1508.37 485.341 1509.39 484.95C1509.74 484.807 1510.09 484.663 1510.43 484.533L1510.8 484.377C1511.71 483.999 1512.62 483.607 1513.51 483.177L1517.25 481.522C1517.45 481.443 1517.61 481.391 1517.66 481.378C1517.88 481.287 1518.09 481.157 1518.3 481.065L1518.97 480.779L1518.85 480.805C1520.41 480.049 1521.95 479.227 1523.41 478.289C1525.49 476.959 1527.49 475.473 1529.32 473.804C1528.64 474.43 1527.62 474.912 1526.82 475.408C1525.91 475.968 1524.97 476.516 1524.03 477.037C1522.18 478.067 1520.29 478.967 1518.37 479.84C1518.15 479.944 1517.94 480.062 1517.73 480.166C1517.56 480.244 1517.39 480.335 1517.22 480.401C1516.5 480.7 1515.77 480.987 1515.06 481.287C1509.94 483.373 1504.78 484.911 1499.27 485.602C1486.97 487.14 1474.97 485.928 1463.71 480.505C1443.94 470.989 1431.74 455.476 1427.88 433.797C1425.56 420.748 1427.06 408.024 1432.64 395.888C1432.87 395.366 1433.22 394.91 1433.51 394.415C1437.65 385.25 1444.05 377.911 1452.01 371.915C1460.89 365.214 1470.88 361.16 1481.97 359.895C1481.97 359.895 1496.05 357.64 1508.41 360.977C1507.62 360.769 1506.84 360.482 1506.03 360.273C1503.82 359.713 1501.55 359.309 1499.28 359.022C1494.92 358.474 1490.52 358.409 1486.12 358.683C1483.95 358.813 1481.77 359.035 1479.61 359.309C1478.5 359.439 1477.41 359.596 1476.32 359.765C1476.04 359.804 1473.11 360.195 1473.11 360.299C1471.31 360.625 1469.54 361.029 1467.78 361.512C1464.66 362.372 1461.61 363.454 1458.65 364.771C1455.72 366.074 1452.88 367.6 1450.16 369.307C1447.45 371.028 1444.88 372.931 1442.46 375.03C1440.04 377.129 1437.77 379.397 1435.67 381.822C1433.57 384.26 1431.66 386.854 1429.95 389.591C1428.22 392.342 1426.71 395.236 1425.42 398.221C1424.64 400.033 1423.95 401.884 1423.34 403.762C1422.7 405.743 1422.06 405.978 1420.18 405.248C1406.92 400.138 1393.28 398.847 1379.25 401.298C1371.96 402.575 1365.17 405.17 1358.6 408.781C1355.95 397.83 1351.07 388.184 1343.6 379.932C1338.19 373.961 1331.99 369.06 1324.67 365.527C1321.95 364.21 1319.13 363.076 1316.27 362.125C1312.76 360.964 1309.17 360.091 1305.52 359.491C1303.54 359.165 1301.56 358.931 1299.57 358.774C1297.6 358.618 1295.59 358.696 1293.64 358.54C1299.44 359.048 1305.02 360.091 1310.55 361.981C1317.65 364.406 1324.29 368.082 1330 372.971C1347.13 387.623 1354.51 406.291 1352.46 428.661C1350.83 446.324 1342.67 460.547 1329.02 471.706C1328.02 472.527 1326.88 473.192 1325.8 473.935C1319.59 478.706 1312.52 481.691 1304.96 483.477C1292.04 486.514 1279.28 485.876 1266.79 481.274C1266.75 481.626 1266.7 481.965 1266.66 482.317C1269.93 483.894 1273.29 485.25 1276.81 486.149C1278.37 486.541 1278.63 486.971 1277.81 488.431C1273.51 496.109 1269.75 504.061 1266.44 512.209C1265.07 515.572 1263.76 518.948 1262.41 522.325C1261.98 525.779 1260.76 529.038 1259.82 532.362C1258.34 537.655 1256.8 542.921 1255.86 548.344C1255.67 549.453 1254.88 550.248 1254.55 551.265C1255.57 552.281 1254.98 553.481 1254.83 554.563C1254 560.39 1253.43 566.243 1253.75 572.135C1254.18 579.761 1255.21 587.283 1258.09 594.44C1258.47 594.388 1258.75 594.479 1258.99 594.648C1259.24 594.818 1259.43 595.066 1259.68 595.313C1266.54 602.483 1273.97 609.027 1281.84 615.102C1285.25 617.735 1288.78 620.199 1292.39 622.546C1296 624.892 1299.67 627.121 1303.38 629.298C1304.43 629.911 1305.47 630.654 1306.77 630.693C1307.57 621.568 1309.32 612.625 1312.15 603.917C1316.53 590.425 1323.22 578.21 1332.45 567.39C1339.94 558.604 1348.69 551.369 1358.84 545.907C1368.44 540.744 1378.64 537.407 1389.56 536.338C1415.15 533.835 1437.18 541.853 1456.06 558.969C1472.36 573.752 1482.13 592.341 1487.28 613.538C1488.48 618.478 1489.08 623.51 1489.94 628.49C1495.61 626.183 1500.53 622.624 1505.5 619.156C1511.75 614.776 1517.83 610.135 1523.38 604.856C1523.62 604.634 1524.03 604.582 1524.36 604.452C1526.68 600.997 1528.23 597.164 1529.6 593.267C1533.99 580.83 1533.61 568.016 1532.44 555.162L1532.41 555.175Z" fill="#40BE46"/>
<path d="M1259.67 595.313C1259.43 595.066 1259.22 594.818 1258.97 594.649C1258.73 594.479 1258.45 594.375 1258.08 594.44C1263.4 608.714 1272.47 620.004 1285.15 628.425C1291.42 632.596 1297.83 636.559 1304.82 640.092C1300.87 642.569 1297.14 644.916 1293.4 647.249C1293.56 648.461 1294.67 648.566 1295.48 648.905C1305.68 653.037 1316.22 656.048 1327.03 658.043C1328.86 658.382 1330.92 659.555 1332.82 658.017C1331.69 655.762 1330.74 653.441 1330.21 650.964C1329.83 650.756 1329.46 650.495 1329.06 650.352C1322.4 648.057 1315.92 645.359 1309.52 642.4C1308.45 641.904 1307.41 641.487 1307.37 640.001C1307.3 637.029 1307.11 634.07 1306.98 631.097C1306.9 630.967 1306.82 630.824 1306.74 630.693C1305.44 630.654 1304.4 629.911 1303.36 629.298C1299.64 627.121 1295.97 624.892 1292.36 622.546C1288.75 620.199 1285.22 617.748 1281.81 615.102C1273.94 609.04 1266.53 602.483 1259.65 595.313H1259.67Z" fill="#40BE46"/>
<path d="M1332.84 658.004C1334.34 659.346 1336.11 659.972 1338.09 660.376C1343.38 661.458 1347.6 665.943 1348.35 671.014C1349.17 676.489 1346.71 681.781 1342.13 684.415C1337.25 687.204 1331.63 686.826 1327.24 683.255C1323.8 680.452 1322.25 676.71 1322.49 672.291C1322.57 670.949 1322.35 669.71 1322.04 668.433C1321.65 666.829 1320.37 666.816 1319.19 666.608C1317.92 666.386 1317.62 667.377 1317.19 668.224C1316.35 669.919 1315.8 671.731 1315.22 673.53C1314.91 674.507 1315.04 675.303 1315.46 676.228C1317.8 681.547 1317 686.474 1313.23 690.829C1309.96 694.596 1303.88 696.03 1299.2 694.192C1293.8 692.067 1290.79 687.974 1290.57 682.212C1290.38 677.48 1292.47 673.621 1296.44 670.922C1298.95 669.202 1300.62 665.174 1300.07 662.149C1299.91 661.237 1299.45 661.106 1298.71 661.302C1295.59 662.071 1292.82 662.762 1291.75 666.738C1289.95 673.438 1282.85 676.971 1275.96 675.211C1269.25 673.504 1264.89 666.829 1266.06 660.089C1267.23 653.376 1273.46 648.5 1280.22 649.165C1281.99 649.335 1283.74 649.452 1285.38 648.905C1288 648.031 1290.89 648.553 1293.4 647.249C1293.56 648.461 1294.67 648.566 1295.48 648.905C1305.68 653.037 1316.22 656.048 1327.03 658.043C1328.86 658.382 1330.92 659.555 1332.82 658.017L1332.84 658.004Z" fill="#40BE46"/>
<path d="M1493.37 648.983C1495.74 650.521 1497.97 650.717 1500.87 649.713C1507.58 647.392 1514.9 651.434 1517.12 658.108C1519.38 664.952 1515.84 672.304 1509.07 674.794C1502.19 677.323 1494.71 674.221 1492.16 667.429C1490.54 663.153 1486.89 661.901 1483.29 660.454C1482.2 660.024 1481.75 660.767 1481.63 661.836C1481.29 664.952 1483.21 668.641 1486.03 670.232C1493.82 674.586 1495.56 683.919 1489.81 690.646C1486.55 694.453 1480.85 695.939 1475.86 694.283C1470.96 692.654 1467.47 688.169 1467.05 683.137C1466.87 680.83 1467.13 678.64 1468.08 676.554C1468.54 675.55 1468.36 674.612 1468.19 673.582C1467.89 671.796 1467.04 670.127 1467.2 668.25C1467.29 667.207 1467.29 666.086 1465.95 665.838C1464.55 665.578 1463.08 665.539 1462.29 666.999C1461.49 668.459 1460.9 669.971 1461.11 671.77C1461.88 678.418 1457.61 684.428 1451.15 685.914C1444.79 687.387 1438.23 683.854 1436.01 677.792C1433.72 671.496 1436.36 664.795 1442.28 661.628C1444.74 660.311 1447.34 659.92 1450.05 659.907C1453.38 659.816 1456.67 659.386 1459.97 659.099C1468.81 658.343 1477.38 656.374 1485.64 653.206C1488.37 652.164 1491.32 651.368 1493.37 648.983V648.983Z" fill="#40BE46"/>
<path d="M1490.74 636.533C1488.56 638.215 1486.03 639.258 1483.65 640.574C1483.01 640.926 1482.03 640.979 1482 642.034C1481.08 641.865 1480.3 642.23 1479.51 642.595C1477.33 643.599 1475.14 644.577 1472.95 645.541C1466.44 648.409 1459.64 650.521 1452.95 652.92C1447.17 654.314 1441.44 655.866 1435.63 657.078C1425.91 659.112 1416.08 660.337 1406.14 660.898C1400.25 661.237 1394.38 661.367 1388.5 661.158C1371.12 660.546 1354.01 658.121 1337.34 652.972C1334.99 652.242 1332.6 651.629 1330.23 650.951C1329.85 650.743 1329.49 650.482 1329.09 650.338C1322.43 648.044 1315.94 645.346 1309.55 642.386C1308.48 641.891 1307.43 641.474 1307.4 639.988C1307.33 637.016 1307.14 634.056 1307.01 631.084C1312.18 633.535 1317.26 636.22 1322.56 638.371C1335.33 643.56 1348.46 647.523 1362.06 650.052C1373.05 652.098 1384.12 652.92 1395.24 653.285C1400.49 653.454 1405.79 652.933 1411.06 652.568C1417.28 652.137 1423.41 651.329 1429.54 650.299C1438.76 648.761 1447.81 646.467 1456.66 643.495C1466.98 640.04 1477.06 635.934 1486.58 630.589C1487.57 630.028 1488.52 629.259 1489.79 629.35C1490.74 631.658 1490.83 634.069 1490.78 636.507L1490.74 636.533Z" fill="#40BE46"/>
<path d="M1452.93 652.92C1459.63 650.521 1466.43 648.409 1472.94 645.541C1475.13 644.577 1477.32 643.599 1479.49 642.595C1480.3 642.217 1481.07 641.852 1481.98 642.035C1485.77 644.355 1489.56 646.662 1493.35 648.983C1491.32 651.368 1488.35 652.164 1485.63 653.206C1477.37 656.374 1468.8 658.33 1459.95 659.099C1456.65 659.386 1453.36 659.816 1450.04 659.907C1450.61 657.417 1452.5 655.475 1452.92 652.933L1452.93 652.92Z" fill="#40BE46"/>
<path d="M1490.74 636.533C1490.79 634.096 1490.7 631.671 1489.75 629.377C1489.8 629.09 1489.85 628.79 1489.9 628.503C1495.57 626.196 1500.49 622.637 1505.46 619.169C1511.71 614.789 1517.79 610.148 1523.34 604.869C1523.58 604.647 1523.99 604.595 1524.32 604.465C1520.16 612.182 1514.42 618.609 1507.91 624.358C1502.62 629.025 1497.04 633.313 1490.72 636.546L1490.74 636.533Z" fill="#40BE46"/>
<path d="M1489.9 628.49C1489.85 628.777 1489.8 629.077 1489.75 629.363C1488.48 629.272 1487.53 630.041 1486.54 630.602C1477.02 635.947 1466.94 640.04 1456.62 643.508C1447.77 646.467 1438.72 648.774 1429.5 650.312C1423.37 651.329 1417.24 652.15 1411.02 652.581C1405.75 652.946 1400.46 653.467 1395.2 653.298C1384.09 652.933 1373.01 652.111 1362.02 650.065C1348.42 647.536 1335.29 643.586 1322.52 638.384C1317.23 636.233 1312.15 633.548 1306.97 631.097C1306.89 630.967 1306.81 630.824 1306.73 630.693C1307.53 621.568 1309.28 612.625 1312.11 603.917C1316.49 590.425 1323.18 578.21 1332.41 567.39C1339.9 558.604 1348.65 551.369 1358.8 545.907C1368.4 540.744 1378.6 537.407 1389.52 536.338C1415.12 533.835 1437.14 541.852 1456.02 558.969C1472.32 573.752 1482.09 592.341 1487.25 613.538C1488.44 618.478 1489.04 623.51 1489.9 628.49V628.49Z" fill="#C3E0B6"/>
<path d="M1393.87 460.338C1399.17 460.338 1404.47 460.338 1409.77 460.338C1410.36 460.338 1410.96 460.273 1411.51 460.39C1413.46 460.794 1414.14 461.955 1413.1 463.584C1409.32 469.502 1404.15 473.752 1397.18 475.121C1387.82 476.959 1380.7 472.957 1375.08 465.774C1374.34 464.836 1374 463.584 1373.49 462.45C1373.12 461.603 1373.42 461.003 1374.3 460.807C1375.42 460.56 1376.54 460.312 1377.73 460.325C1383.11 460.377 1388.48 460.351 1393.86 460.351L1393.87 460.338Z" fill="#308E33"/>
<path d="M1290.71 486.541C1326.07 486.541 1354.74 457.854 1354.74 422.468C1354.74 387.082 1326.07 358.396 1290.71 358.396C1255.35 358.396 1226.68 387.082 1226.68 422.468C1226.68 457.854 1255.35 486.541 1290.71 486.541Z" fill="white"/>
<path d="M1293.51 480.948C1258.14 480.948 1229.48 452.256 1229.48 416.876C1229.48 407.672 1231.44 398.938 1234.93 391.025C1229.69 400.32 1226.68 411.036 1226.68 422.468C1226.68 457.861 1255.35 486.541 1290.71 486.541C1316.88 486.541 1339.36 470.819 1349.3 448.306C1338.32 467.782 1317.47 480.935 1293.52 480.935L1293.51 480.948Z" fill="#DCDDDC"/>
<path d="M1280.09 392.968C1281.76 396.149 1284.3 397.817 1287.91 396.97C1290.54 396.357 1292.23 394.532 1292.65 391.834C1293.2 388.249 1291.54 385.811 1288.23 384.416C1299.61 375.682 1317.69 378.172 1327.47 389.709C1337.81 401.897 1336.63 419.992 1324.79 430.877C1313.19 441.527 1295.09 441.123 1283.88 429.951C1272.03 418.14 1273.72 401.05 1280.1 392.955L1280.09 392.968Z" fill="#323232"/>
<path d="M1490.87 486.684C1526.23 486.684 1554.89 457.998 1554.89 422.612C1554.89 387.226 1526.23 358.54 1490.87 358.54C1455.51 358.54 1426.84 387.226 1426.84 422.612C1426.84 457.998 1455.51 486.684 1490.87 486.684Z" fill="white"/>
<path d="M1493.67 481.091C1458.3 481.091 1429.64 452.399 1429.64 417.019C1429.64 407.816 1431.59 399.082 1435.09 391.169C1429.85 400.464 1426.84 411.179 1426.84 422.612C1426.84 458.005 1455.51 486.684 1490.87 486.684C1517.04 486.684 1539.52 470.962 1549.46 448.449C1538.48 467.925 1517.62 481.078 1493.68 481.078L1493.67 481.091Z" fill="#DCDDDC"/>
<path d="M1448.96 393.111C1450.63 396.292 1453.17 397.961 1456.78 397.113C1459.41 396.501 1461.1 394.676 1461.52 391.977C1462.06 388.392 1460.41 385.954 1457.1 384.56C1468.47 375.825 1486.55 378.315 1496.34 389.852C1506.68 402.041 1505.5 420.135 1493.65 431.02C1482.06 441.67 1463.95 441.266 1452.75 430.094C1440.9 418.284 1442.59 401.194 1448.97 393.098L1448.96 393.111Z" fill="#323232"/>
<path d="M1528.85 539.415C1528.85 539.415 1540.28 548.084 1555.23 524.893C1555.23 524.893 1556.11 511.883 1566.28 512.978C1566.28 512.978 1574.45 513.343 1571.56 522.807C1571.56 522.807 1570.17 527.291 1563.24 528.803V554.028C1563.24 554.028 1535.94 567.012 1532.2 571.536L1528.84 539.428L1528.85 539.415Z" fill="#40BE46"/>
<path d="M1225.26 544.799C1224.36 545.398 1223.36 546.063 1222.19 546.78C1220.48 547.836 1218.46 548.996 1216.12 550.235C1216 550.3 1215.89 550.378 1215.78 550.456C1214.63 551.147 1213.46 551.734 1212.26 552.216L1212.21 552.242C1208.9 553.559 1205.38 554.106 1201.8 554.08C1199.51 554.067 1197.14 552.998 1195.38 551.186C1192.56 548.292 1190.52 545.007 1189.46 541.044C1188.24 536.416 1184.4 533.796 1180.07 534.305C1176.35 534.748 1173.69 537.29 1173.15 540.901C1172.63 544.447 1174.74 548.318 1178.06 549.596C1181.84 551.056 1185.5 552.699 1188.69 555.214C1190.28 556.466 1191.6 557.9 1192.16 559.999C1192.65 561.889 1192.16 562.997 1190.53 564.04C1186.82 566.412 1182.6 566.804 1178.44 567.455C1173.8 568.185 1169.13 568.055 1164.45 568.211C1159.55 568.368 1154.76 567.768 1149.93 567.429C1146.49 567.182 1143.49 568.29 1141.59 571.379C1139.58 574.664 1139.34 578.054 1141.71 581.247C1144.04 584.389 1147.3 585.393 1151.06 584.454C1153.83 583.763 1156.57 582.864 1159.08 581.482C1162.69 579.514 1166.51 578.458 1170.57 578.054C1175.03 577.61 1179.48 577.063 1183.94 576.581C1186.28 576.333 1188.39 577.063 1190.88 578.197C1188.8 579.683 1187.01 581.065 1185.13 582.277C1181.14 584.858 1176.89 586.944 1172.62 589.017C1167.98 591.259 1163.19 592.941 1158.39 594.727C1155.24 595.913 1153.12 598.312 1152.71 601.805C1152.28 605.455 1153.42 608.532 1156.71 610.461C1160.02 612.391 1163.33 612.208 1166.41 609.927C1168.66 608.258 1170.7 606.316 1172.38 604.074C1175.16 600.358 1178.56 597.438 1182.55 595.118C1186.19 592.993 1189.79 590.764 1193.4 588.574C1194.3 588.026 1195.27 587.7 1196.3 587.505C1198.02 587.192 1198.56 587.57 1198.09 589.291C1197.03 593.136 1195.6 596.826 1192.22 599.355C1189.66 601.284 1187.83 603.552 1188.56 607.111C1189.23 610.357 1190.57 611.843 1193.8 612.56C1198.93 613.694 1203.91 609.914 1204.12 604.647C1204.37 598.312 1206.53 592.589 1209.56 587.127C1209.99 586.358 1210.67 586.097 1211.41 585.823C1217.39 583.62 1222.13 580.035 1224.57 573.921C1224.97 572.917 1225.59 572.148 1226.38 571.444C1228.14 569.906 1229.83 568.303 1231.55 566.712C1234.6 564.118 1245.56 557.678 1246.78 556.714C1251.54 554.967 1256.12 553.637 1256.12 553.637L1263.27 521.894V520.043C1263.27 520.043 1240.61 532.636 1225.27 544.76L1225.26 544.799Z" fill="#40BE46"/>
<path d="M1556.61 652.685C1539.68 527.083 1518.77 506.16 1518.77 506.16C1471.2 519.613 1429.91 524.619 1395.64 525.179C1361.37 524.619 1317.73 517.514 1270.15 504.061C1270.15 504.061 1251.59 527.07 1234.65 652.672C1234.65 652.672 1305 664.848 1395.63 664.574C1486.26 664.848 1556.6 652.672 1556.6 652.672L1556.61 652.685Z" fill="white"/>
<g style="mix-blend-mode:multiply">
<path d="M1556.61 652.685C1539.82 526.574 1518.77 506.16 1518.77 506.16L1517.69 506.46C1524.8 526.131 1520.78 537.485 1509.27 546.702C1505.18 549.987 1513.82 548.475 1520.97 543.938C1522.68 542.856 1523.02 547.432 1512.32 553.611C1504.36 558.213 1513.96 556.218 1519.83 558.669C1530.39 563.075 1529.05 575.994 1529.32 589.721C1529.49 598.181 1530.26 608.376 1527.86 620.968C1522.01 651.773 1528.61 644.199 1533.79 621.229C1535.2 614.998 1538.75 642.048 1533.61 656.009C1546.06 654.354 1556.63 652.672 1556.63 652.672L1556.61 652.685Z" fill="#E2E2E2"/>
</g>
<path d="M1395.33 629.637C1387.75 628.503 1383.19 621.672 1391.91 621.672C1400.64 621.672 1432.09 616.471 1435.91 590.933C1439.12 569.332 1432.78 554.589 1430.79 550.639C1396.83 551.564 1347.1 550.313 1341.27 550.156C1339.79 585.549 1340.15 616.419 1340.15 616.732C1340.07 617.996 1340.89 619.599 1342.48 621.294C1345.97 625.035 1353.09 629.116 1363.78 631.879C1383.11 635.243 1401.66 630.589 1395.33 629.637V629.637Z" fill="white"/>
<g style="mix-blend-mode:multiply">
<path d="M1355.89 630.028C1344.6 625.713 1339.36 619.991 1339.59 616.745C1339.59 616.745 1339.21 585.628 1340.72 549.57C1340.72 549.57 1394.27 551.056 1430.5 550.078C1430.32 549.752 1430.21 549.57 1430.21 549.57L1434.88 549.374C1399.14 550.6 1341.37 549.022 1340.74 548.996H1340.18L1340.16 549.544C1338.66 585.197 1339.01 616.432 1339.03 616.692C1338.92 618.244 1339.83 620.108 1341.67 622.063C1344.12 624.684 1348.04 627.356 1353.45 629.676C1352.79 629.181 1352.49 628.881 1352.49 628.881C1353.62 629.298 1354.76 629.676 1355.92 630.028H1355.89Z" fill="#E2E2E2"/>
</g>
<g style="mix-blend-mode:multiply">
<path d="M1444.05 548.97L1443.45 548.996C1442.95 549.022 1442.45 549.048 1441.94 549.074L1444.05 548.983V548.957V548.97Z" fill="#E2E2E2"/>
</g>
<path d="M1340.72 549.57C1339.21 585.614 1339.59 616.745 1339.59 616.745C1339.36 619.991 1344.6 625.713 1355.89 630.028C1358.5 630.81 1361.14 631.423 1363.78 631.892C1353.11 629.129 1345.97 625.036 1342.48 621.307C1340.89 619.613 1340.07 618.009 1340.15 616.745C1340.15 616.432 1339.79 585.562 1341.27 550.169C1347.1 550.326 1396.83 551.577 1430.79 550.652C1430.67 550.43 1430.58 550.248 1430.5 550.091C1394.29 551.069 1340.72 549.583 1340.72 549.583V549.57Z" fill="white"/>
<g style="mix-blend-mode:multiply">
<path d="M1340.72 549.57C1339.21 585.614 1339.59 616.745 1339.59 616.745C1339.36 619.991 1344.6 625.713 1355.89 630.028C1358.5 630.81 1361.14 631.423 1363.78 631.892C1353.11 629.129 1345.97 625.036 1342.48 621.307C1340.89 619.613 1340.07 618.009 1340.15 616.745C1340.15 616.432 1339.79 585.562 1341.27 550.169C1347.1 550.326 1396.83 551.577 1430.79 550.652C1430.67 550.43 1430.58 550.248 1430.5 550.091C1394.29 551.069 1340.72 549.583 1340.72 549.583V549.57Z" fill="#E2E2E2"/>
</g>
<g style="mix-blend-mode:multiply">
<path d="M1434.88 549.374C1437.35 549.296 1439.71 549.192 1441.95 549.074L1434.88 549.374Z" fill="#E2E2E2"/>
</g>
<path d="M1442.91 616.732V550.169C1439.22 550.365 1435.12 550.521 1430.79 550.639C1432.78 554.589 1439.12 569.332 1435.91 590.933C1432.1 616.471 1400.64 621.672 1391.91 621.672C1383.19 621.672 1387.75 628.503 1395.33 629.637C1401.67 630.589 1383.11 635.243 1363.78 631.879C1371.36 633.848 1380.72 635.138 1391.91 635.138C1416.99 635.138 1442.91 628.255 1442.91 616.732V616.732Z" fill="white"/>
<g style="mix-blend-mode:multiply">
<path d="M1442.91 616.732V550.169C1439.22 550.365 1435.12 550.521 1430.79 550.639C1432.78 554.589 1439.12 569.332 1435.91 590.933C1432.1 616.471 1400.64 621.672 1391.91 621.672C1383.19 621.672 1387.75 628.503 1395.33 629.637C1401.67 630.589 1383.11 635.243 1363.78 631.879C1371.36 633.848 1380.72 635.138 1391.91 635.138C1416.99 635.138 1442.91 628.255 1442.91 616.732V616.732Z" fill="#E2E2E2"/>
</g>
<g style="mix-blend-mode:multiply">
<path d="M1444.05 616.732V548.983L1441.94 549.074C1439.7 549.192 1437.34 549.283 1434.86 549.374L1430.2 549.57C1430.2 549.57 1430.3 549.752 1430.49 550.078C1435.15 549.948 1439.54 549.791 1443.47 549.57V616.745C1443.47 628.503 1418.07 635.725 1391.9 635.725C1376.28 635.725 1364.38 633.274 1355.88 630.041C1354.74 629.689 1353.59 629.324 1352.46 628.894C1352.46 628.894 1352.77 629.194 1353.41 629.689C1362.23 633.47 1375.01 636.286 1391.89 636.286C1417.16 636.286 1444.04 629.442 1444.04 616.745L1444.05 616.732Z" fill="#E2E2E2"/>
</g>
<path d="M1442.91 550.17V616.732C1442.91 628.255 1416.98 635.138 1391.91 635.138C1380.72 635.138 1371.37 633.835 1363.78 631.879C1361.14 631.423 1358.5 630.81 1355.89 630.015C1364.39 633.261 1376.3 635.699 1391.91 635.699C1418.09 635.699 1443.49 628.49 1443.49 616.719V549.544C1439.55 549.765 1435.16 549.922 1430.5 550.052C1430.58 550.209 1430.68 550.391 1430.79 550.613C1435.12 550.495 1439.22 550.339 1442.91 550.143V550.17Z" fill="white"/>
<g style="mix-blend-mode:multiply">
<path d="M1442.91 550.17V616.732C1442.91 628.255 1416.98 635.138 1391.91 635.138C1380.72 635.138 1371.37 633.835 1363.78 631.879C1361.14 631.423 1358.5 630.81 1355.89 630.015C1364.39 633.261 1376.3 635.699 1391.91 635.699C1418.09 635.699 1443.49 628.49 1443.49 616.719V549.544C1439.55 549.765 1435.16 549.922 1430.5 550.052C1430.58 550.209 1430.68 550.391 1430.79 550.613C1435.12 550.495 1439.22 550.339 1442.91 550.143V550.17Z" fill="#E2E2E2"/>
</g>
<path d="M1270.8 506.199C1270.8 506.199 1258.35 496.005 1277.8 488.418C1277.8 488.418 1265.79 495.014 1280.48 508.128L1270.82 506.199H1270.8Z" fill="white"/>
<path d="M1518.77 506.173C1518.77 506.173 1529.91 494.545 1509.69 489.356C1509.69 489.356 1522.4 493.997 1509.4 508.78L1518.77 506.16V506.173Z" fill="white"/>
<path d="M1594.8 366.791H1549.58C1547.78 366.791 1546.34 368.277 1546.37 370.076L1547.64 422.103C1547.79 428.765 1549.2 435.322 1551.78 441.462L1563.06 468.381C1565.63 474.495 1566.83 481.105 1566.55 487.74C1566.34 492.902 1566.03 498.051 1565.64 503.201C1563.99 524.827 1563.07 548.344 1563.07 572.943C1563.07 587.231 1563.39 601.14 1563.96 614.541C1564.16 618.922 1567.74 622.376 1572.1 622.415C1576.49 622.454 1580.23 618.739 1580.41 614.346C1580.99 601.01 1581.3 587.153 1581.3 572.943C1581.3 548.344 1580.39 524.814 1578.73 503.201C1578.34 498.051 1578.03 492.889 1577.82 487.74C1577.55 481.105 1578.75 474.495 1581.31 468.381L1592.59 441.462C1595.16 435.322 1596.57 428.752 1596.74 422.103L1598 370.076C1598.04 368.277 1596.59 366.791 1594.8 366.791V366.791ZM1562.29 410.632C1562.29 411.948 1561.23 413.017 1559.91 413.017C1558.59 413.017 1557.53 411.948 1557.53 410.632V390.53C1557.53 389.213 1558.59 388.144 1559.91 388.144C1561.23 388.144 1562.29 389.213 1562.29 390.53V410.632ZM1565.71 417.788V383.386C1565.71 382.07 1566.77 381.001 1568.09 381.001C1569.41 381.001 1570.47 382.07 1570.47 383.386V417.788C1570.47 419.105 1569.41 420.174 1568.09 420.174C1566.77 420.174 1565.71 419.105 1565.71 417.788ZM1575.89 614.098C1575.89 616.054 1574.3 617.644 1572.35 617.644C1570.4 617.644 1568.81 616.054 1568.81 614.098C1568.81 612.143 1570.4 610.552 1572.35 610.552C1574.3 610.552 1575.89 612.143 1575.89 614.098ZM1578.66 417.788C1578.66 419.105 1577.59 420.174 1576.27 420.174C1574.96 420.174 1573.89 419.105 1573.89 417.788V383.386C1573.89 382.07 1574.96 381.001 1576.27 381.001C1577.59 381.001 1578.66 382.07 1578.66 383.386V417.788ZM1586.84 410.632C1586.84 411.948 1585.77 413.017 1584.45 413.017C1583.14 413.017 1582.07 411.948 1582.07 410.632V390.53C1582.07 389.213 1583.14 388.144 1584.45 388.144C1585.77 388.144 1586.84 389.213 1586.84 390.53V410.632Z" fill="#59666E"/>
<g style="mix-blend-mode:multiply">
<path d="M1594.8 366.791H1549.58C1547.78 366.791 1546.34 368.277 1546.37 370.076L1547.64 422.103C1547.66 423.394 1547.74 424.684 1547.87 425.975C1548.33 430.72 1552.3 434.357 1557.07 434.357H1587.3C1592.07 434.357 1596.05 430.72 1596.5 425.975C1596.63 424.698 1596.71 423.407 1596.74 422.103L1598 370.076C1598.04 368.277 1596.59 366.791 1594.8 366.791V366.791ZM1562.29 410.632C1562.29 411.948 1561.23 413.017 1559.91 413.017C1558.59 413.017 1557.53 411.948 1557.53 410.632V390.53C1557.53 389.213 1558.59 388.144 1559.91 388.144C1561.23 388.144 1562.29 389.213 1562.29 390.53V410.632ZM1570.47 417.788C1570.47 419.105 1569.41 420.174 1568.09 420.174C1566.77 420.174 1565.71 419.105 1565.71 417.788V383.386C1565.71 382.07 1566.77 381.001 1568.09 381.001C1569.41 381.001 1570.47 382.07 1570.47 383.386V417.788ZM1578.66 417.788C1578.66 419.105 1577.59 420.174 1576.27 420.174C1574.96 420.174 1573.89 419.105 1573.89 417.788V383.386C1573.89 382.07 1574.96 381.001 1576.27 381.001C1577.59 381.001 1578.66 382.07 1578.66 383.386V417.788ZM1586.84 410.632C1586.84 411.948 1585.77 413.017 1584.45 413.017C1583.14 413.017 1582.07 411.948 1582.07 410.632V390.53C1582.07 389.213 1583.14 388.144 1584.45 388.144C1585.77 388.144 1586.84 389.213 1586.84 390.53V410.632Z" fill="#E2E2E2"/>
</g>
<path d="M1588.83 521.555C1588.7 520.095 1588.14 518.792 1587.04 518.257C1585.7 517.605 1584.11 517.749 1582.75 517.149C1581.83 516.745 1581 516.185 1580.05 515.846C1578.49 515.272 1576.7 514.92 1575.06 515.415C1574.13 515.689 1573.2 516.302 1572.65 517.11C1571.92 518.166 1571.79 519.613 1571.56 520.851C1571.28 522.246 1571.19 523.706 1571.27 525.127C1571.33 526.157 1571.56 527.096 1572.25 527.891C1573.38 529.181 1575.29 529.586 1576.95 529.468C1579.15 529.312 1581.35 528.921 1583.5 528.412C1584.8 528.099 1586.46 527.93 1587.44 526.9C1588.44 525.844 1589.01 523.563 1588.83 521.581V521.555Z" fill="#40BE46"/>
<path d="M1587.41 529.69C1585.74 528.047 1582.56 528.999 1580.64 529.638C1578.73 530.276 1576.88 531.111 1574.89 531.372C1573.67 531.541 1572.66 531.893 1571.83 532.832C1570.93 533.848 1570.55 535.191 1570.46 536.521C1570.4 537.525 1570.34 538.372 1570.83 539.323C1571.99 541.657 1575.05 542.674 1577.48 542.335C1579.66 542.035 1581.96 541.631 1583.97 540.718C1585.85 539.858 1587.07 538.202 1587.66 536.273C1587.96 535.308 1588.11 534.305 1588.18 533.301C1588.24 532.297 1588.36 531.176 1587.85 530.276C1587.73 530.068 1587.58 529.872 1587.41 529.703V529.69Z" fill="#40BE46"/>
<path d="M1586.76 541.866C1587.25 543.078 1587.19 545.059 1587.15 545.946C1587.08 547.771 1586.64 549.622 1585.72 551.212C1583.5 555.019 1577.29 556.883 1573.47 554.537C1571.99 553.624 1570.88 552.138 1570.49 550.43C1569.98 548.227 1570.27 545.75 1570.25 543.508C1570.25 543.221 1570.25 542.935 1570.36 542.674C1570.88 541.383 1571.96 542.7 1572.55 543.078C1574.06 544.056 1576.58 543.912 1578.29 543.704C1579.54 543.547 1580.75 543.234 1581.91 542.752C1583.03 542.296 1583.98 541.409 1585.08 540.992C1585.42 540.862 1585.82 540.849 1586.13 541.044C1586.41 541.214 1586.6 541.514 1586.74 541.879L1586.76 541.866Z" fill="#40BE46"/>
<path d="M1391.51 611.791L1365.61 596.734L1365.55 572.813L1391.43 587.87L1391.5 611.791H1391.51Z" fill="url(#paint0_linear_106_5)"/>
<path d="M1391.45 587.87L1365.56 572.813L1391.52 557.809L1417.41 572.865L1391.45 587.87Z" fill="#86C7F7"/>
<path fill-rule="evenodd" clip-rule="evenodd" d="M1392.04 565.969L1390.55 566.139L1390.33 566.23H1390.09L1389.88 566.321L1388.71 566.595L1388.54 566.673H1388.38L1388.24 566.79L1386.08 567.599L1385.97 567.69C1385 568.068 1384.2 568.602 1383.36 569.046L1383.26 569.15C1382.5 569.58 1382.24 569.802 1381.7 570.323L1381.57 570.414L1381.04 571.131L1380.93 571.223L1380.75 571.588L1380.66 571.692C1380.05 573.087 1380.06 573.308 1380.19 574.938L1380.29 575.107V575.277L1380.37 575.42L1380.57 575.929L1380.66 576.046L1380.75 576.307L1380.85 576.398C1381.17 576.959 1381.54 577.402 1381.92 577.806C1382.13 578.041 1383.02 578.758 1383.37 578.94L1383.46 579.044C1384.18 579.383 1384.7 579.813 1385.6 580.126L1385.71 580.205L1387.46 580.752L1387.65 580.843C1388.25 580.908 1388.89 581.091 1389.56 581.169C1390.29 581.26 1390.68 580.908 1391.28 580.648L1391.39 580.556H1391.47L1391.59 580.465L1394.36 579.188L1394.48 579.096H1394.56L1394.68 579.005L1396.28 578.249L1396.14 578.184C1395.2 578.145 1394.09 578.288 1393.07 578.262C1392.06 578.236 1391.11 578.054 1390.18 578.001L1389.99 577.91C1389.31 577.845 1388.63 577.558 1388.06 577.363L1387.93 577.284C1386.99 576.946 1386.13 576.202 1385.71 575.446C1385.08 574.221 1385.47 573.321 1385.96 572.292L1386.07 572.2L1386.16 572.031L1386.26 571.94C1386.77 571.223 1387.99 570.232 1389.22 569.841L1389.35 569.763L1390.64 569.398L1390.82 569.306H1391.02L1391.21 569.215L1392.07 569.137C1392.28 569.007 1392.38 569.02 1392.68 569.02H1394.68C1394.99 569.02 1395.26 569.02 1395.48 569.137L1396.64 569.293L1396.79 569.398C1397.49 569.502 1398.08 569.893 1398.68 570.115L1398.78 570.206L1399.14 570.375L1399.24 570.48C1399.86 570.806 1400.97 571.822 1401.2 572.631L1401.28 572.761C1401.54 573.673 1401.48 573.973 1401.28 574.873L1401.2 575.042L1400.88 575.746L1401.36 575.551L1401.46 575.459L1405.31 573.478L1405.41 573.387L1406.32 572.93L1406.43 572.839L1407.34 572.383L1407.44 572.279C1407.48 572.083 1406.3 571.105 1406.04 570.858L1405.94 570.727C1405.63 570.467 1405.19 570.076 1404.82 569.854L1404.73 569.75C1404.37 569.541 1404.06 569.215 1403.7 569.046L1403.61 568.941L1402.69 568.407L1402.6 568.303L1401.38 567.677L1401.27 567.586L1399.72 566.947L1399.59 566.869L1398.65 566.608L1398.51 566.504H1398.34L1398.15 566.425H1397.98L1397.82 566.321C1397.05 566.243 1396.21 565.995 1395.35 565.917C1394.32 565.826 1393.32 565.943 1392.4 565.865L1392.03 565.956L1392.04 565.969Z" fill="url(#paint1_linear_106_5)"/>
<path d="M1391.45 587.87L1391.51 611.791L1403.98 604.595V580.622L1391.45 587.87Z" fill="#A9DCFC"/>
<path d="M1417.47 596.799L1417.41 572.865L1404.94 580.074V604.034L1417.47 596.799Z" fill="#A9DCFC"/>
<path d="M1404.94 580.074L1403.98 580.622V604.595L1404.94 604.034V580.074Z" fill="#A9DCFC"/>
<path d="M1404.94 580.074L1403.98 580.622V604.595L1404.94 604.034V580.074Z" fill="url(#paint2_linear_106_5)"/>
</g>
<defs>
<linearGradient id="paint0_linear_106_5" x1="1366.9" y1="592.002" x2="1387.47" y2="592.523" gradientUnits="userSpaceOnUse">
<stop stop-color="#0086FD"/>
<stop offset="1" stop-color="#21AFFF"/>
</linearGradient>
<linearGradient id="paint1_linear_106_5" x1="1380.1" y1="573.53" x2="1407.47" y2="573.53" gradientUnits="userSpaceOnUse">
<stop stop-color="#0086FD"/>
<stop offset="1" stop-color="#21AFFF"/>
</linearGradient>
<linearGradient id="paint2_linear_106_5" x1="1403.98" y1="592.328" x2="1404.94" y2="592.328" gradientUnits="userSpaceOnUse">
<stop stop-color="#0086FD"/>
<stop offset="1" stop-color="#21AFFF"/>
</linearGradient>
<clipPath id="clip0_106_5">
<rect width="458" height="473" fill="white" transform="translate(1140 222)"/>
</clipPath>
</defs>
</svg>
